<svg width="84" height="80" viewBox="0 0 84 80" fill="none" xmlns="http://www.w3.org/2000/svg">
<path d="M83.2129 31.0715C74.8046 37.4522 61.0586 47.3216 51.7557 53.9412C51.1594 54.3885 50.5929 54.7763 50.0271 55.1932L41.857 49.0514L33.6864 55.1932C33.1199 54.7763 32.5541 54.3885 31.9578 53.9412C22.6537 47.2918 8.93807 37.4224 0.529783 31.012L0.709074 30.9226H0.5L33.6864 6.14388L41.857 0.03125L50.0569 6.17366L83.1831 30.9822H82.9443L83.2129 31.0715Z" fill="#026196"/>
<path d="M17.283 0L66.3329 0.0981048L66.1837 74.7095L17.1338 74.6114L17.283 0Z" fill="#EBEBEB"/>
<path d="M41.7487 6.46094L61.8796 6.5012L61.8754 8.59077L41.7446 8.5505L41.7487 6.46094ZM41.7367 12.6331L61.8675 12.6733L61.8633 14.7629L41.7325 14.7226L41.7367 12.6331ZM41.7246 18.8047L61.8548 18.845L61.8507 20.9346L41.7204 20.8943L41.7246 18.8047ZM41.7119 24.9769L61.8421 25.0171L61.8379 27.1073L41.7077 27.0671L41.7119 24.9769ZM21.6618 31.1177L61.8305 31.1981L61.8263 33.2882L21.6576 33.2078L21.6618 31.1177ZM21.6497 37.2899L61.8178 37.3703L61.8136 39.4604L21.6455 39.3801L21.6497 37.2899ZM21.6367 43.4617L61.8049 43.542L61.8007 45.6316L21.6326 45.5513L21.6367 43.4617ZM21.6249 49.6337L61.793 49.7141L61.7888 51.8037L21.6207 51.7233L21.6249 49.6337ZM21.6121 55.8053L61.7803 55.8857L61.7761 57.9752L21.608 57.8949L21.6121 55.8053ZM21.6001 61.9776L61.7682 62.0579L61.764 64.1474L21.5959 64.0671L21.6001 61.9776ZM21.5877 68.1499L61.7558 68.2302L61.7516 70.3198L21.5835 70.2394L21.5877 68.1499Z" fill="#B3B3B3"/>
<path d="M33.6864 55.193L21.7596 64.0784L14.872 69.207L0.5 79.9413L0.529783 31.0117C8.93867 37.4222 22.6543 47.2916 31.9572 53.9409C32.5535 54.3877 33.1199 54.776 33.6864 55.193ZM83.2129 31.0713L83.1831 80.0015L61.9235 64.1088L56.3476 59.9046L50.0271 55.193C50.5935 54.776 51.1594 54.3883 51.7557 53.9409C61.0592 47.3214 74.8046 37.452 83.2129 31.0713Z" fill="#29ABE2"/>
<path d="M83.1831 80.0005L56.3178 79.9707H14.872L0.5 79.9409L14.872 69.2066L21.7596 64.078L33.6864 55.1926L41.857 49.0508L50.0271 55.1926L56.3476 59.9036L61.9241 64.1078L83.1831 80.0005Z" fill="#17BEE4"/>
<path d="M21.2527 6.55859H39.3219V27.0426H21.2527V6.55859Z" fill="#B3B3B3"/>
<path d="M36.9667 20.1859V27.0437H23.2809V20.1859C23.2809 17.2041 25.7255 14.7595 28.7073 14.7595H31.5694C34.5513 14.7595 36.9667 17.2041 36.9667 20.1859ZM33.9747 10.9449C33.9747 12.9815 32.3235 14.632 30.2876 14.632C28.251 14.632 26.6005 12.9815 26.6005 10.9449C26.6005 8.90838 28.251 7.25781 30.2876 7.25781C32.3235 7.25781 33.9747 8.90838 33.9747 10.9449Z" fill="#4D4D4D"/>
</svg>
