<svg width="12" height="14" viewBox="0 0 12 14" fill="none" xmlns="http://www.w3.org/2000/svg">
<path fill-rule="evenodd" clip-rule="evenodd" d="M11.1195 1.91304C11.1195 1.53828 10.9706 1.17887 10.7056 0.913871C10.4406 0.648874 10.0812 0.5 9.70646 0.5H1.79341C1.41865 0.5 1.05924 0.648874 0.794242 0.913871C0.529245 1.17887 0.380371 1.53828 0.380371 1.91304V12.087C0.380371 12.4617 0.529245 12.8211 0.794242 13.0861C1.05924 13.3511 1.41865 13.5 1.79341 13.5H9.70646C10.0812 13.5 10.4406 13.3511 10.7056 13.0861C10.9706 12.8211 11.1195 12.4617 11.1195 12.087V1.91304ZM10.5543 1.91304V12.087C10.5543 12.3118 10.465 12.5275 10.306 12.6865C10.147 12.8455 9.93132 12.9348 9.70646 12.9348H1.79341C1.56856 12.9348 1.35291 12.8455 1.19391 12.6865C1.03491 12.5275 0.945589 12.3118 0.945589 12.087V1.91304C0.945589 1.68819 1.03491 1.47254 1.19391 1.31354C1.35291 1.15454 1.56856 1.06522 1.79341 1.06522H9.70646C9.93132 1.06522 10.147 1.15454 10.306 1.31354C10.465 1.47254 10.5543 1.68819 10.5543 1.91304Z" fill="#333333"/>
<path fill-rule="evenodd" clip-rule="evenodd" d="M2.92387 2.76099C2.7028 2.76669 2.49271 2.85852 2.33837 3.0169C2.18403 3.17528 2.09766 3.38767 2.09766 3.60881C2.09766 3.82995 2.18403 4.04235 2.33837 4.20072C2.49271 4.3591 2.7028 4.45093 2.92387 4.45664C3.14494 4.45093 3.35503 4.3591 3.50937 4.20072C3.66371 4.04235 3.75009 3.82995 3.75009 3.60881C3.75009 3.38767 3.66371 3.17528 3.50937 3.0169C3.35503 2.85852 3.14494 2.76669 2.92387 2.76099ZM2.92387 3.3262C2.99882 3.3262 3.07071 3.35598 3.12371 3.40898C3.17671 3.46198 3.20648 3.53386 3.20648 3.60881C3.20648 3.68376 3.17671 3.75565 3.12371 3.80865C3.07071 3.86165 2.99882 3.89142 2.92387 3.89142C2.84892 3.89142 2.77704 3.86165 2.72404 3.80865C2.67104 3.75565 2.64126 3.68376 2.64126 3.60881C2.64126 3.53386 2.67104 3.46198 2.72404 3.40898C2.77704 3.35598 2.84892 3.3262 2.92387 3.3262ZM2.92387 6.15229C2.7028 6.158 2.49271 6.24983 2.33837 6.4082C2.18403 6.56658 2.09766 6.77898 2.09766 7.00012C2.09766 7.22126 2.18403 7.43365 2.33837 7.59203C2.49271 7.7504 2.7028 7.84223 2.92387 7.84794C3.14494 7.84223 3.35503 7.7504 3.50937 7.59203C3.66371 7.43365 3.75009 7.22126 3.75009 7.00012C3.75009 6.77898 3.66371 6.56658 3.50937 6.4082C3.35503 6.24983 3.14494 6.158 2.92387 6.15229ZM2.92387 6.71751C2.99882 6.71751 3.07071 6.74728 3.12371 6.80028C3.17671 6.85328 3.20648 6.92516 3.20648 7.00012C3.20648 7.07507 3.17671 7.14695 3.12371 7.19995C3.07071 7.25295 2.99882 7.28273 2.92387 7.28273C2.84892 7.28273 2.77704 7.25295 2.72404 7.19995C2.67104 7.14695 2.64126 7.07507 2.64126 7.00012C2.64126 6.92516 2.67104 6.85328 2.72404 6.80028C2.77704 6.74728 2.84892 6.71751 2.92387 6.71751ZM2.92387 9.54359C2.7028 9.5493 2.49271 9.64113 2.33837 9.79951C2.18403 9.95788 2.09766 10.1703 2.09766 10.3914C2.09766 10.6126 2.18403 10.825 2.33837 10.9833C2.49271 11.1417 2.7028 11.2335 2.92387 11.2392C3.14494 11.2335 3.35503 11.1417 3.50937 10.9833C3.66371 10.825 3.75009 10.6126 3.75009 10.3914C3.75009 10.1703 3.66371 9.95788 3.50937 9.79951C3.35503 9.64113 3.14494 9.5493 2.92387 9.54359ZM2.92387 10.1088C2.99882 10.1088 3.07071 10.1386 3.12371 10.1916C3.17671 10.2446 3.20648 10.3165 3.20648 10.3914C3.20648 10.4664 3.17671 10.5383 3.12371 10.5913C3.07071 10.6443 2.99882 10.674 2.92387 10.674C2.84892 10.674 2.77704 10.6443 2.72404 10.5913C2.67104 10.5383 2.64126 10.4664 2.64126 10.3914C2.64126 10.3165 2.67104 10.2446 2.72404 10.1916C2.77704 10.1386 2.84892 10.1088 2.92387 10.1088ZM4.61952 3.3262H9.14126C9.21622 3.3262 9.2881 3.29643 9.3411 3.24343C9.3941 3.19043 9.42387 3.11855 9.42387 3.0436C9.42387 2.96864 9.3941 2.89676 9.3411 2.84376C9.2881 2.79076 9.21622 2.76099 9.14126 2.76099H4.61952C4.54457 2.76099 4.47269 2.79076 4.41969 2.84376C4.36669 2.89676 4.33692 2.96864 4.33692 3.0436C4.33692 3.11855 4.36669 3.19043 4.41969 3.24343C4.47269 3.29643 4.54457 3.3262 4.61952 3.3262ZM4.61952 6.71751H9.14126C9.21622 6.71751 9.2881 6.68773 9.3411 6.63473C9.3941 6.58173 9.42387 6.50985 9.42387 6.4349C9.42387 6.35995 9.3941 6.28806 9.3411 6.23506C9.2881 6.18207 9.21622 6.15229 9.14126 6.15229H4.61952C4.54457 6.15229 4.47269 6.18207 4.41969 6.23506C4.36669 6.28806 4.33692 6.35995 4.33692 6.4349C4.33692 6.50985 4.36669 6.58173 4.41969 6.63473C4.47269 6.68773 4.54457 6.71751 4.61952 6.71751ZM4.61952 10.1088H9.14126C9.21622 10.1088 9.2881 10.079 9.3411 10.026C9.3941 9.97304 9.42387 9.90116 9.42387 9.8262C9.42387 9.75125 9.3941 9.67937 9.3411 9.62637C9.2881 9.57337 9.21622 9.54359 9.14126 9.54359H4.61952C4.54457 9.54359 4.47269 9.57337 4.41969 9.62637C4.36669 9.67937 4.33692 9.75125 4.33692 9.8262C4.33692 9.90116 4.36669 9.97304 4.41969 10.026C4.47269 10.079 4.54457 10.1088 4.61952 10.1088ZM4.61952 4.45664H7.44561C7.52056 4.45664 7.59245 4.42686 7.64545 4.37386C7.69844 4.32086 7.72822 4.24898 7.72822 4.17403C7.72822 4.09908 7.69844 4.02719 7.64545 3.9742C7.59245 3.9212 7.52056 3.89142 7.44561 3.89142H4.61952C4.54457 3.89142 4.47269 3.9212 4.41969 3.9742C4.36669 4.02719 4.33692 4.09908 4.33692 4.17403C4.33692 4.24898 4.36669 4.32086 4.41969 4.37386C4.47269 4.42686 4.54457 4.45664 4.61952 4.45664ZM4.61952 7.84794H7.44561C7.52056 7.84794 7.59245 7.81817 7.64545 7.76517C7.69844 7.71217 7.72822 7.64029 7.72822 7.56533C7.72822 7.49038 7.69844 7.4185 7.64545 7.3655C7.59245 7.3125 7.52056 7.28273 7.44561 7.28273H4.61952C4.54457 7.28273 4.47269 7.3125 4.41969 7.3655C4.36669 7.4185 4.33692 7.49038 4.33692 7.56533C4.33692 7.64029 4.36669 7.71217 4.41969 7.76517C4.47269 7.81817 4.54457 7.84794 4.61952 7.84794ZM4.61952 11.2392H7.44561C7.52056 11.2392 7.59245 11.2095 7.64545 11.1565C7.69844 11.1035 7.72822 11.0316 7.72822 10.9566C7.72822 10.8817 7.69844 10.8098 7.64545 10.7568C7.59245 10.7038 7.52056 10.674 7.44561 10.674H4.61952C4.54457 10.674 4.47269 10.7038 4.41969 10.7568C4.36669 10.8098 4.33692 10.8817 4.33692 10.9566C4.33692 11.0316 4.36669 11.1035 4.41969 11.1565C4.47269 11.2095 4.54457 11.2392 4.61952 11.2392ZM9.14126 3.89142H8.57605C8.50109 3.89142 8.42921 3.9212 8.37621 3.9742C8.32321 4.02719 8.29344 4.09908 8.29344 4.17403C8.29344 4.24898 8.32321 4.32086 8.37621 4.37386C8.42921 4.42686 8.50109 4.45664 8.57605 4.45664H9.14126C9.21622 4.45664 9.2881 4.42686 9.3411 4.37386C9.3941 4.32086 9.42387 4.24898 9.42387 4.17403C9.42387 4.09908 9.3941 4.02719 9.3411 3.9742C9.2881 3.9212 9.21622 3.89142 9.14126 3.89142ZM9.14126 7.28273H8.57605C8.50109 7.28273 8.42921 7.3125 8.37621 7.3655C8.32321 7.4185 8.29344 7.49038 8.29344 7.56533C8.29344 7.64029 8.32321 7.71217 8.37621 7.76517C8.42921 7.81817 8.50109 7.84794 8.57605 7.84794H9.14126C9.21622 7.84794 9.2881 7.81817 9.3411 7.76517C9.3941 7.71217 9.42387 7.64029 9.42387 7.56533C9.42387 7.49038 9.3941 7.4185 9.3411 7.3655C9.2881 7.3125 9.21622 7.28273 9.14126 7.28273ZM9.14126 10.674H8.57605C8.50109 10.674 8.42921 10.7038 8.37621 10.7568C8.32321 10.8098 8.29344 10.8817 8.29344 10.9566C8.29344 11.0316 8.32321 11.1035 8.37621 11.1565C8.42921 11.2095 8.50109 11.2392 8.57605 11.2392H9.14126C9.21622 11.2392 9.2881 11.2095 9.3411 11.1565C9.3941 11.1035 9.42387 11.0316 9.42387 10.9566C9.42387 10.8817 9.3941 10.8098 9.3411 10.7568C9.2881 10.7038 9.21622 10.674 9.14126 10.674Z" fill="#333333"/>
</svg>
