<svg width="101" height="100" viewBox="0 0 101 100" fill="none" xmlns="http://www.w3.org/2000/svg">
<g clip-path="url(#clip0_0_11160)">
<path d="M50.75 97.8516C77.1777 97.8516 98.6016 76.4277 98.6016 50C98.6016 23.5723 77.1777 2.14844 50.75 2.14844C24.3223 2.14844 2.89844 23.5723 2.89844 50C2.89844 76.4277 24.3223 97.8516 50.75 97.8516Z" fill="url(#paint0_linear_0_11160)"/>
<path d="M34.8574 74.1875H55.9512V83.2051H34.8574V74.1875Z" fill="#445EA0"/>
<path d="M34.8574 74.1875H38.7328V83.2051H34.8574V74.1875Z" fill="#2E4C89"/>
<path d="M65.8153 87.8906C65.8153 88.4277 65.3758 88.8672 64.8387 88.8672H25.9709C25.4338 88.8672 24.9944 88.4277 24.9944 87.8906V83.9844C24.9944 83.4473 25.4338 83.0078 25.9709 83.0078H64.8387C65.3758 83.0078 65.8153 83.4473 65.8153 83.9844V87.8906Z" fill="#293D7C"/>
<path d="M28.8698 87.8906V83.9844C28.8698 83.4473 29.3092 83.0078 29.8463 83.0078H25.9709C25.4338 83.0078 24.9944 83.4473 24.9944 83.9844V87.8906C24.9944 88.4277 25.4338 88.8672 25.9709 88.8672H29.8463C29.3092 88.8672 28.8698 88.4277 28.8698 87.8906Z" fill="#1A2B63"/>
<path d="M0.75 72.4279C0.75 73.5022 1.62891 74.3811 2.70312 74.3811H61.3311V61.3047H0.75V72.4279Z" fill="url(#paint1_linear_0_11160)"/>
<path d="M4.62539 72.4279V61.3047H0.75V72.4279C0.75 73.5022 1.62891 74.3811 2.70312 74.3811H6.57852C5.5043 74.3811 4.62539 73.5022 4.62539 72.4279Z" fill="#10910A"/>
<path d="M61.3311 56.0535C61.3311 55.6227 61.6814 55.2723 62.1123 55.2723H90.0596V12.9828C90.0596 11.802 89.0936 10.8359 87.9129 10.8359H2.89687C1.71602 10.8359 0.75 11.802 0.75 12.9828V61.502H61.3311V56.0535Z" fill="#8A8A8A"/>
<path d="M61.331 56.0527C61.331 55.6219 61.6814 55.2715 62.1123 55.2715H85.766V16.1055C85.766 15.5684 85.3265 15.1289 84.7894 15.1289H6.02026C5.48315 15.1289 5.0437 15.5684 5.0437 16.1055V56.2307C5.0437 56.7678 5.48315 57.2072 6.02026 57.2072H61.3308L61.331 56.0527Z" fill="#EEF6FF"/>
<path d="M45.4043 70.727C46.9048 70.727 48.1212 69.5105 48.1212 68.01C48.1212 66.5094 46.9048 65.293 45.4043 65.293C43.9037 65.293 42.6873 66.5094 42.6873 68.01C42.6873 69.5105 43.9037 70.727 45.4043 70.727Z" fill="white"/>
<path d="M82.0705 40.3082C82.0705 40.8453 81.631 41.2848 81.0939 41.2848H50.1453C49.6082 41.2848 49.1687 40.8453 49.1687 40.3082V26.1055C49.1687 25.5684 49.6082 25.1289 50.1453 25.1289H81.0939C81.631 25.1289 82.0705 25.5684 82.0705 26.1055V40.3082Z" fill="#FFAF10"/>
<path d="M53.0443 40.3082V26.1055C53.0443 25.5684 53.4838 25.1289 54.0209 25.1289H50.1455C49.6084 25.1289 49.1689 25.5684 49.1689 26.1055V40.3082C49.1689 40.8453 49.6084 41.2848 50.1455 41.2848H54.0209C53.4838 41.2848 53.0443 40.8453 53.0443 40.3082Z" fill="#FF9518"/>
<path d="M59.2003 46.8984H50.78C49.971 46.8984 49.3152 46.2428 49.3152 45.4336C49.3152 44.6244 49.971 43.9688 50.78 43.9688H59.2003C60.0093 43.9688 60.6652 44.6244 60.6652 45.4336C60.6652 46.2428 60.0093 46.8984 59.2003 46.8984ZM59.2003 51.3506H50.78C49.971 51.3506 49.3152 50.6949 49.3152 49.8857C49.3152 49.0766 49.971 48.4209 50.78 48.4209H59.2003C60.0093 48.4209 60.6652 49.0766 60.6652 49.8857C60.6652 50.6949 60.0093 51.3506 59.2003 51.3506ZM69.3593 46.8984H63.0976C62.2886 46.8984 61.6328 46.2428 61.6328 45.4336C61.6328 44.6244 62.2886 43.9688 63.0976 43.9688H69.3593C70.1683 43.9688 70.8242 44.6244 70.8242 45.4336C70.8242 46.2428 70.1683 46.8984 69.3593 46.8984ZM69.3593 51.3506H63.0976C62.2886 51.3506 61.6328 50.6949 61.6328 49.8857C61.6328 49.0766 62.2886 48.4209 63.0976 48.4209H69.3593C70.1683 48.4209 70.8242 49.0766 70.8242 49.8857C70.8242 50.6949 70.1683 51.3506 69.3593 51.3506ZM81.1742 46.8984H73.1984C72.3894 46.8984 71.7335 46.2428 71.7335 45.4336C71.7335 44.6244 72.3894 43.9688 73.1984 43.9688H81.1742C81.9832 43.9688 82.639 44.6244 82.639 45.4336C82.639 46.2428 81.9832 46.8984 81.1742 46.8984ZM81.1742 51.3506H73.1984C72.3894 51.3506 71.7335 50.6949 71.7335 49.8857C71.7335 49.0766 72.3894 48.4209 73.1984 48.4209H81.1742C81.9832 48.4209 82.639 49.0766 82.639 49.8857C82.639 50.6949 81.9832 51.3506 81.1742 51.3506Z" fill="#C3DDF4"/>
<path d="M70.9385 21.6951C70.9385 22.2322 70.4991 22.6717 69.962 22.6717H67.8137C67.2766 22.6717 66.8372 22.2322 66.8372 21.6951V19.5469C66.8372 19.0098 67.2766 18.5703 67.8137 18.5703H69.962C70.4991 18.5703 70.9385 19.0098 70.9385 19.5469V21.6951ZM76.4069 21.6951C76.4069 22.2322 75.9674 22.6717 75.4303 22.6717H73.2821C72.745 22.6717 72.3055 22.2322 72.3055 21.6951V19.5469C72.3055 19.0098 72.745 18.5703 73.2821 18.5703H75.4303C75.9674 18.5703 76.4069 19.0098 76.4069 19.5469V21.6951ZM81.8752 21.6951C81.8752 22.2322 81.4358 22.6717 80.8987 22.6717H78.7504C78.2133 22.6717 77.7739 22.2322 77.7739 21.6951V19.5469C77.7739 19.0098 78.2133 18.5703 78.7504 18.5703H80.8987C81.4358 18.5703 81.8752 19.0098 81.8752 19.5469V21.6951Z" fill="#EF8318"/>
<path d="M38.0347 50.1953H36.2769C35.4679 50.1953 34.8121 49.5396 34.8121 48.7305C34.8121 47.9213 35.4679 47.2656 36.2769 47.2656H38.0347C38.4232 47.2656 38.7958 47.42 39.0705 47.6947C39.3453 47.9694 39.4996 48.342 39.4996 48.7305C39.4996 49.119 39.3453 49.4916 39.0705 49.7663C38.7958 50.041 38.4232 50.1953 38.0347 50.1953ZM31.3941 50.1953H29.6363C28.8273 50.1953 28.1715 49.5396 28.1715 48.7305C28.1715 47.9213 28.8273 47.2656 29.6363 47.2656H31.3941C31.7826 47.2656 32.1552 47.42 32.4299 47.6947C32.7046 47.9694 32.859 48.342 32.859 48.7305C32.859 49.119 32.7046 49.4916 32.4299 49.7663C32.1552 50.041 31.7826 50.1953 31.3941 50.1953ZM24.7533 50.1953H22.9955C22.1865 50.1953 21.5306 49.5396 21.5306 48.7305C21.5306 47.9213 22.1865 47.2656 22.9955 47.2656H24.7533C25.1418 47.2656 25.5144 47.42 25.7891 47.6947C26.0638 47.9694 26.2181 48.342 26.2181 48.7305C26.2182 48.9228 26.1803 49.1134 26.1067 49.2911C26.0331 49.4689 25.9252 49.6304 25.7892 49.7664C25.6532 49.9024 25.4917 50.0103 25.3139 50.0839C25.1362 50.1575 24.9457 50.1954 24.7533 50.1953ZM18.1127 50.1953H16.3549C15.5459 50.1953 14.89 49.5396 14.89 48.7305C14.89 47.9213 15.5459 47.2656 16.3549 47.2656H18.1127C18.5012 47.2656 18.8738 47.42 19.1485 47.6947C19.4232 47.9694 19.5775 48.342 19.5775 48.7305C19.5775 49.5396 18.9219 50.1953 18.1127 50.1953ZM43.7476 44.1604C43.3591 44.1604 42.9865 44.006 42.7118 43.7313C42.4371 43.4566 42.2828 43.084 42.2828 42.6955V40.9377C42.2828 40.5492 42.4371 40.1766 42.7118 39.9019C42.9865 39.6272 43.3591 39.4729 43.7476 39.4729C44.1361 39.4729 44.5087 39.6272 44.7834 39.9019C45.0581 40.1766 45.2125 40.5492 45.2125 40.9377V42.6955C45.2125 43.084 45.0581 43.4566 44.7834 43.7313C44.5087 44.006 44.1361 44.1604 43.7476 44.1604ZM43.7476 37.5197C43.3591 37.5197 42.9865 37.3654 42.7118 37.0907C42.4371 36.816 42.2828 36.4434 42.2828 36.0549V34.2971C42.2828 33.9086 42.4371 33.536 42.7118 33.2613C42.9865 32.9866 43.3591 32.8322 43.7476 32.8322C44.1361 32.8322 44.5087 32.9866 44.7834 33.2613C45.0581 33.536 45.2125 33.9086 45.2125 34.2971V36.0549C45.2125 36.4434 45.0581 36.816 44.7834 37.0907C44.5087 37.3654 44.1361 37.5197 43.7476 37.5197ZM43.7476 30.8791C43.3591 30.8791 42.9865 30.7248 42.7118 30.4501C42.4371 30.1753 42.2828 29.8028 42.2828 29.4143V27.6564C42.2828 27.2679 42.4371 26.8954 42.7118 26.6206C42.9865 26.3459 43.3591 26.1916 43.7476 26.1916C44.1361 26.1916 44.5087 26.3459 44.7834 26.6206C45.0581 26.8954 45.2125 27.2679 45.2125 27.6564V29.4143C45.2125 29.8028 45.0581 30.1753 44.7834 30.4501C44.5087 30.7248 44.1361 30.8791 43.7476 30.8791ZM10.5443 44.1604C10.1558 44.1604 9.78322 44.006 9.50851 43.7313C9.2338 43.4566 9.07947 43.084 9.07947 42.6955V40.9377C9.07947 40.5492 9.2338 40.1766 9.50851 39.9019C9.78322 39.6272 10.1558 39.4729 10.5443 39.4729C10.9328 39.4729 11.3054 39.6272 11.5801 39.9019C11.8548 40.1766 12.0092 40.5492 12.0092 40.9377V42.6955C12.0092 43.5047 11.3535 44.1604 10.5443 44.1604ZM10.5443 37.5197C10.1558 37.5197 9.78322 37.3654 9.50851 37.0907C9.2338 36.816 9.07947 36.4434 9.07947 36.0549V34.2971C9.07947 33.9086 9.2338 33.536 9.50851 33.2613C9.78322 32.9866 10.1558 32.8322 10.5443 32.8322C10.9328 32.8322 11.3054 32.9866 11.5801 33.2613C11.8548 33.536 12.0092 33.9086 12.0092 34.2971V36.0549C12.0092 36.8641 11.3535 37.5197 10.5443 37.5197ZM10.5443 30.8791C10.1558 30.8791 9.78322 30.7248 9.50851 30.4501C9.2338 30.1753 9.07947 29.8028 9.07947 29.4143V27.6564C9.07947 27.2679 9.2338 26.8954 9.50851 26.6206C9.78322 26.3459 10.1558 26.1916 10.5443 26.1916C10.9328 26.1916 11.3054 26.3459 11.5801 26.6206C11.8548 26.8954 12.0092 27.2679 12.0092 27.6564V29.4143C12.0092 30.2234 11.3535 30.8791 10.5443 30.8791ZM38.0347 23.6328H36.2769C35.4679 23.6328 34.8121 22.9771 34.8121 22.168C34.8121 21.3588 35.4679 20.7031 36.2769 20.7031H38.0347C38.8437 20.7031 39.4996 21.3588 39.4996 22.168C39.4996 22.9771 38.8437 23.6328 38.0347 23.6328ZM31.3941 23.6328H29.6363C28.8273 23.6328 28.1715 22.9771 28.1715 22.168C28.1715 21.3588 28.8273 20.7031 29.6363 20.7031H31.3941C32.2031 20.7031 32.859 21.3588 32.859 22.168C32.859 22.9771 32.2031 23.6328 31.3941 23.6328ZM24.7533 23.6328H22.9955C22.1865 23.6328 21.5306 22.9771 21.5306 22.168C21.5306 21.3588 22.1865 20.7031 22.9955 20.7031H24.7533C25.5623 20.7031 26.2181 21.3588 26.2181 22.168C26.2181 22.9771 25.5625 23.6328 24.7533 23.6328ZM18.1127 23.6328H16.3549C15.5459 23.6328 14.89 22.9771 14.89 22.168C14.89 21.3588 15.5459 20.7031 16.3549 20.7031H18.1127C18.9217 20.7031 19.5775 21.3588 19.5775 22.168C19.5775 22.9771 18.9219 23.6328 18.1127 23.6328Z" fill="#69CDFF"/>
<path d="M39.8414 43.8477C39.8414 44.3848 39.402 44.8242 38.8649 44.8242H15.4274C14.8903 44.8242 14.4508 44.3848 14.4508 43.8477V27.0508C14.4508 26.5137 14.8903 26.0742 15.4274 26.0742H38.8649C39.402 26.0742 39.8414 26.5137 39.8414 27.0508V43.8477Z" fill="#5DC1D8"/>
<path d="M18.3261 43.8477V27.0508C18.3261 26.5137 18.7656 26.0742 19.3027 26.0742H15.4271C14.89 26.0742 14.4506 26.5137 14.4506 27.0508V43.8477C14.4506 44.3848 14.89 44.8242 15.4271 44.8242H19.3027C18.7656 44.8242 18.3261 44.3848 18.3261 43.8477Z" fill="#28A5A5"/>
<path d="M46.4814 23.6328C46.4814 24.1699 46.042 24.6094 45.5049 24.6094H41.4033C40.8662 24.6094 40.4268 24.1699 40.4268 23.6328V19.5312C40.4268 18.9941 40.8662 18.5547 41.4033 18.5547H45.5049C46.042 18.5547 46.4814 18.9941 46.4814 19.5312V23.6328ZM14.0596 24.0234C14.0596 24.5605 13.6201 25 13.083 25H8.98145C8.44434 25 8.00488 24.5605 8.00488 24.0234V19.9219C8.00488 19.3848 8.44434 18.9453 8.98145 18.9453H13.083C13.6201 18.9453 14.0596 19.3848 14.0596 19.9219V24.0234ZM46.4814 50.952C46.4814 51.4891 46.042 51.9285 45.5049 51.9285H41.4033C40.8662 51.9285 40.4268 51.4891 40.4268 50.952V46.8504C40.4268 46.3133 40.8662 45.8738 41.4033 45.8738H45.5049C46.042 45.8738 46.4814 46.3133 46.4814 46.8504V50.952ZM14.0596 50.952C14.0596 51.4891 13.6201 51.9285 13.083 51.9285H8.98145C8.44434 51.9285 8.00488 51.4891 8.00488 50.952V46.8504C8.00488 46.3133 8.44434 45.8738 8.98145 45.8738H13.083C13.6201 45.8738 14.0596 46.3133 14.0596 46.8504V50.952Z" fill="#52BBEF"/>
<path d="M42.5795 23.6328V19.5312C42.5795 18.9941 43.0189 18.5547 43.5561 18.5547H41.4033C40.8662 18.5547 40.4268 18.9941 40.4268 19.5312V23.6328C40.4268 24.1699 40.8662 24.6094 41.4033 24.6094H43.5561C43.0189 24.6094 42.5795 24.1699 42.5795 23.6328ZM10.1576 24.0234V19.9219C10.1576 19.3848 10.5971 18.9453 11.1342 18.9453H8.98145C8.44434 18.9453 8.00488 19.3848 8.00488 19.9219V24.0234C8.00488 24.5605 8.44434 25 8.98145 25H11.1342C10.5971 25 10.1576 24.5605 10.1576 24.0234ZM42.5795 50.952V46.8504C42.5795 46.3133 43.0189 45.8738 43.5561 45.8738H41.4033C40.8662 45.8738 40.4268 46.3133 40.4268 46.8504V50.952C40.4268 51.4891 40.8662 51.9285 41.4033 51.9285H43.5561C43.0189 51.9285 42.5795 51.4891 42.5795 50.952ZM10.1576 50.952V46.8504C10.1576 46.3133 10.5971 45.8738 11.1342 45.8738H8.98145C8.44434 45.8738 8.00488 46.3133 8.00488 46.8504V50.952C8.00488 51.4891 8.44434 51.9285 8.98145 51.9285H11.1342C10.5971 51.9285 10.1576 51.4891 10.1576 50.952Z" fill="#1E99D6"/>
<path d="M85.8003 71.6338C85.7701 71.5514 85.7724 71.5045 85.7767 71.4893C85.7769 71.4893 85.7888 71.4881 85.7999 71.4881C85.8222 71.4881 85.8611 71.4926 85.9199 71.5143L94.1433 74.5348V56.0508C94.1433 55.5137 93.7039 55.0742 93.1667 55.0742H62.1121C61.575 55.0742 61.1355 55.5137 61.1355 56.0508V78.4727C61.1355 79.0098 61.575 79.4492 62.1121 79.4492H88.6707L85.8003 71.6338Z" fill="url(#paint2_linear_0_11160)"/>
<path d="M65.0111 78.4727V56.0508C65.0111 55.5137 65.4506 55.0742 65.9877 55.0742H62.1123C61.5752 55.0742 61.1357 55.5137 61.1357 56.0508V78.4727C61.1357 79.0098 61.5752 79.4492 62.1123 79.4492H65.9877C65.4506 79.4492 65.0111 79.0098 65.0111 78.4727Z" fill="#28A5A5"/>
<path d="M85.9873 71.331C85.6656 71.2128 85.4988 71.3794 85.617 71.7013L90.7664 85.7212C90.8846 86.0431 91.1797 86.1079 91.4221 85.8656L94.1558 83.1318C94.273 83.0153 94.4316 82.95 94.5968 82.95C94.762 82.95 94.9205 83.0153 95.0377 83.1318L98.1877 86.2822C98.3048 86.3986 98.4633 86.4639 98.6285 86.4639C98.7937 86.4639 98.9522 86.3986 99.0693 86.2822L100.568 84.7833C100.685 84.6662 100.75 84.5077 100.75 84.3425C100.75 84.1773 100.685 84.0189 100.568 83.9017L97.418 80.7515C97.3015 80.6343 97.2362 80.4759 97.2362 80.3107C97.2362 80.1455 97.3015 79.987 97.418 79.8699L100.152 77.1361C100.394 76.8939 100.329 76.5988 100.007 76.4806L85.9873 71.331Z" fill="url(#paint3_linear_0_11160)"/>
</g>
<defs>
<linearGradient id="paint0_linear_0_11160" x1="2.89844" y1="50" x2="98.6016" y2="50" gradientUnits="userSpaceOnUse">
<stop stop-color="#0068B4"/>
<stop offset="0.548077" stop-color="#0094FF"/>
<stop offset="1" stop-color="#007FDB"/>
</linearGradient>
<linearGradient id="paint1_linear_0_11160" x1="0.75" y1="67.5385" x2="61.2536" y2="69.8612" gradientUnits="userSpaceOnUse">
<stop stop-color="#00FF87"/>
<stop offset="1" stop-color="#60EFFF"/>
</linearGradient>
<linearGradient id="paint2_linear_0_11160" x1="61.1355" y1="66.6943" x2="94.1455" y2="67.0647" gradientUnits="userSpaceOnUse">
<stop stop-color="#00FF87"/>
<stop offset="1" stop-color="#60EFFF"/>
</linearGradient>
<linearGradient id="paint3_linear_0_11160" x1="85.579" y1="78.5253" x2="100.752" y2="78.651" gradientUnits="userSpaceOnUse">
<stop stop-color="#0061FF"/>
<stop offset="1" stop-color="#60EFFF"/>
</linearGradient>
<clipPath id="clip0_0_11160">
<rect width="100" height="100" fill="white" transform="translate(0.75)"/>
</clipPath>
</defs>
</svg>
