<svg width="21" height="25" viewBox="0 0 21 25" fill="none" xmlns="http://www.w3.org/2000/svg">
<path d="M19.0734 18.6113L18.9877 18.5864C17.7471 18.2524 17.3274 17.9331 16.7752 17.7222C16.3504 17.561 15.9944 17.4087 15.6948 17.268C16.4683 17.1362 17.1729 16.9706 17.8042 16.7729C19.2199 16.3262 19.7466 15.8647 19.8022 15.8134L20.2182 15.4282L19.7839 15.0634C18.7176 14.167 18.511 12.0909 18.2913 9.89364C18.0745 7.72058 17.8504 5.47351 16.8272 3.66879C15.623 1.54444 13.5539 0.508063 10.499 0.5C7.44701 0.508063 5.37787 1.54444 4.17307 3.66847C3.14987 5.47318 2.92576 7.72058 2.70896 9.89369C2.48995 12.091 2.28267 14.167 1.2163 15.0635L0.782696 15.4282L1.19872 15.8135C1.25366 15.8648 1.78101 16.3262 3.19679 16.773C3.82816 16.9707 4.532 17.1363 5.30615 17.2681C5.00657 17.4087 4.64989 17.561 4.2251 17.7222C3.67286 17.9331 3.25318 18.2525 2.01243 18.5865L1.92749 18.6113C0.798118 18.9834 0.0378418 20.0308 0.0378418 21.2129V24.5H20.9624V21.2129C20.9623 20.0307 20.2028 18.9834 19.0734 18.6113ZM17.2966 9.99325C17.5068 12.1012 17.7068 14.1069 18.6802 15.3491C18.4018 15.4926 17.9807 15.6758 17.3772 15.8574C16.4514 16.1372 15.4135 16.3217 14.3757 16.4404C14.2702 16.3364 14.2102 16.25 14.1757 16.1841C14.1713 16.1753 14.1677 16.165 14.1633 16.1562L14.1588 15.5644C15.6933 14.0454 16.948 11.8031 16.948 9.45494C16.948 8.92758 16.9018 8.42297 16.8146 7.94324C16.8989 7.95421 16.9838 7.9641 17.0688 7.97254C17.1611 8.63977 17.2292 9.32017 17.2966 9.99325ZM13.893 14.3896C13.3188 15.0429 12.6758 15.5907 12.0327 15.9716C11.4592 16.3129 10.915 16.5004 10.5004 16.5004C10.0859 16.5004 9.54169 16.3129 8.96821 15.9716C8.32517 15.5908 7.68213 15.0429 7.10791 14.3896C5.80566 12.9054 5.05785 11.1139 5.05269 9.47176C5.925 9.28318 6.80467 8.96569 7.68284 8.52108C8.87742 7.9161 10.0727 7.07529 11.2358 6.02204C11.3618 5.9081 11.4863 5.7926 11.6094 5.67559C12.385 6.25966 13.9018 7.25651 15.749 7.73554C15.8808 8.27826 15.9482 8.85357 15.9482 9.45489C15.9482 11.1021 15.199 12.9002 13.893 14.3896ZM15.957 4.16174C16.4221 4.98206 16.7063 5.93565 16.9011 6.94568C14.9316 6.67615 13.2038 5.5973 12.3286 4.96012C13.4828 3.75819 14.2138 2.73391 14.3969 2.46878C15.0371 2.8877 15.5505 3.44431 15.957 4.16174ZM5.04318 4.16174C5.5222 3.31723 6.14761 2.69472 6.95556 2.25854C7.88056 1.75903 9.07373 1.50375 10.499 1.50009C11.6606 1.503 12.667 1.67259 13.5004 2.00476C13.1686 2.46873 12.1023 3.89183 10.5481 5.29627C9.45235 6.28572 8.33319 7.07239 7.21994 7.63452C6.08321 8.20875 4.95163 8.54747 3.84644 8.646C4.03615 7.02148 4.32326 5.43211 5.04318 4.16174ZM3.62378 15.8574C3.02026 15.6758 2.59838 15.4927 2.32008 15.3491C3.2935 14.1069 3.49417 12.1012 3.70436 9.99255C3.71533 9.88122 3.72635 9.76989 3.73806 9.65781C3.84353 9.6505 3.94901 9.64169 4.05523 9.63072C4.11527 11.9144 5.34501 14.0835 6.84137 15.5644L6.83772 16.1562C6.83331 16.165 6.82965 16.1753 6.82525 16.1841C6.79084 16.25 6.73075 16.3364 6.62528 16.4404C5.5874 16.3217 4.54883 16.1372 3.62378 15.8574ZM19.9626 23.4995H1.03831V21.2128C1.03831 20.4687 1.51438 19.8081 2.22553 19.5649L2.28122 19.5488C3.21653 19.2969 3.73216 19.0508 4.14743 18.8515C4.30784 18.7754 4.44626 18.708 4.58178 18.6567C5.70094 18.2304 7.24268 17.5581 7.71363 16.6426C7.73196 16.606 7.74514 16.5767 7.75245 16.5591L7.82131 16.4067C8.75076 17.0952 9.70585 17.4995 10.5005 17.4995C11.2945 17.4995 12.2503 17.0952 13.1796 16.4067L13.2485 16.5591C13.2551 16.5752 13.2683 16.606 13.2858 16.6411C13.756 17.5566 15.2993 18.2304 16.4199 18.6567C16.5539 18.708 16.6923 18.7754 16.8527 18.8515C17.268 19.0508 17.7844 19.2969 18.7197 19.5488L18.7753 19.5649C19.4858 19.8081 19.9626 20.4687 19.9626 21.2128L19.9626 23.4995Z" fill="#F249C8"/>
</svg>
