<svg width="25" height="17" viewBox="0 0 25 17" fill="none" xmlns="http://www.w3.org/2000/svg">
<path d="M24.1314 5.66781L24.1378 5.66481C24.2348 5.662 24.327 5.62166 24.3949 5.55228C24.4628 5.4829 24.5012 5.38989 24.5019 5.29281C24.5025 5.24376 24.4933 5.19509 24.4749 5.14961C24.4565 5.10414 24.4293 5.06277 24.3948 5.02789C24.3603 4.99301 24.3192 4.96532 24.2739 4.94643C24.2287 4.92753 24.1801 4.9178 24.1311 4.91781C24.0253 4.88406 23.7478 4.42768 23.7478 3.60531C23.7478 2.78293 24.0257 2.32656 24.1314 2.29281L24.1367 2.29018C24.2287 2.28363 24.3151 2.2434 24.3793 2.17717C24.4435 2.11095 24.481 2.02339 24.4847 1.93122C24.4884 1.83906 24.4581 1.74876 24.3994 1.67759C24.3407 1.60641 24.2579 1.55936 24.1667 1.54543L12.0808 0.124182C11.6103 0.0683066 11.1349 0.0683066 10.6644 0.124182L1.95318 1.17043H1.94755C1.24218 1.21918 0.872803 2.22943 0.872803 3.23031C0.848267 3.82542 1.0052 4.41393 1.3228 4.91781C1.00509 5.42164 0.848148 6.01018 0.872803 6.60531C0.852661 7.17814 0.995717 7.7449 1.2853 8.23956C0.767428 8.76081 0.497803 9.84231 0.497803 10.9178C0.497803 12.3961 1.00443 13.8927 1.97305 13.9178L14.7039 15.4156C14.7185 15.4172 14.7331 15.418 14.7478 15.4178C14.7627 15.4179 14.7776 15.417 14.7924 15.4152L17.7478 15.0604V16.5428C17.7478 16.6248 17.7746 16.7046 17.8243 16.7699C17.8739 16.8352 17.9436 16.8824 18.0227 16.9043C18.0553 16.9132 18.089 16.9177 18.1228 16.9178C18.1875 16.9178 18.2511 16.901 18.3074 16.8692C18.3637 16.8373 18.4109 16.7914 18.4442 16.7359L19.2823 15.3391L20.0728 16.3928C20.12 16.4558 20.1859 16.5023 20.261 16.5258C20.3361 16.5492 20.4167 16.5485 20.4914 16.5236C20.5661 16.4987 20.631 16.4509 20.677 16.3871C20.723 16.3232 20.7478 16.2465 20.7478 16.1678V14.7008L24.1674 14.2902C24.2624 14.2789 24.3495 14.2317 24.4108 14.1584C24.4722 14.085 24.5032 13.9909 24.4975 13.8955C24.4918 13.8 24.4498 13.7103 24.3802 13.6447C24.3105 13.5792 24.2184 13.5427 24.1228 13.5428C23.8603 13.5428 23.3728 12.6886 23.3728 11.2928C23.3728 9.90906 23.8333 9.10806 24.1228 9.04281C24.2227 9.04311 24.3187 9.00383 24.3898 8.93355C24.4608 8.86328 24.5011 8.76773 24.5019 8.66781C24.5027 8.57614 24.4696 8.48742 24.4088 8.41874C24.3481 8.35005 24.2641 8.30627 24.1731 8.29581C24.1582 8.29405 24.1433 8.29305 24.1284 8.29281C24.0208 8.25156 23.7478 7.79631 23.7478 6.98031C23.7478 6.15531 24.0257 5.70156 24.1314 5.66781ZM12.6054 14.4132C12.2514 13.7031 12.0853 12.9141 12.1228 12.1216C12.0954 11.3607 12.2433 10.6036 12.5552 9.90906L13.7901 10.0542C13.4074 10.7817 13.2205 11.5962 13.2478 12.4178C13.2351 13.1454 13.3756 13.8676 13.6603 14.5373L12.6054 14.4132ZM11.0919 14.2351C10.7496 13.5287 10.5884 12.7483 10.6228 11.9641C10.5927 11.1967 10.7451 10.4332 11.0676 9.73618L11.7688 9.81868C11.4897 10.5536 11.3552 11.3356 11.3728 12.1216C11.3611 12.8663 11.4813 13.6072 11.7279 14.3101L11.0919 14.2351ZM5.03043 13.5226C4.74483 12.8471 4.60835 12.118 4.6303 11.3851C4.58646 10.5712 4.76703 9.761 5.1523 9.04281L10.2384 9.64018C10.2497 9.64018 10.2598 9.64693 10.2711 9.64693C10.2739 9.64711 10.2768 9.64711 10.2797 9.64693C9.99524 10.3857 9.85705 11.1726 9.8728 11.9641C9.86196 12.7016 9.97946 13.4354 10.2201 14.1327L5.03043 13.5226ZM3.53305 13.3467C3.24461 12.6698 3.10717 11.9382 3.1303 11.2028C3.08589 10.3907 3.26487 9.58188 3.6478 8.86431L4.34605 8.94643C4.01696 9.71592 3.85759 10.5473 3.8788 11.3839C3.87003 12.0753 3.9713 12.7636 4.1788 13.4232L3.53305 13.3467ZM2.00605 7.91781C1.9003 7.88406 1.6228 7.42768 1.6228 6.60531C1.6228 5.79006 1.89505 5.33556 1.9948 5.29506L3.77118 5.50206C3.77755 5.50206 3.78243 5.50693 3.78843 5.50768L11.3312 6.39268C11.1633 6.88329 11.0823 7.39937 11.0916 7.91781C11.0906 8.28109 11.1294 8.64337 11.2074 8.99818L10.4901 8.91418C10.314 8.47911 10.2315 8.01186 10.2478 7.54281C10.2475 7.3188 10.2726 7.09549 10.3228 6.87718C10.3339 6.82919 10.3354 6.77949 10.3273 6.73091C10.3191 6.68234 10.3015 6.63584 10.2754 6.59407C10.2493 6.5523 10.2153 6.51608 10.1752 6.48748C10.1351 6.45887 10.0897 6.43845 10.0417 6.42737C9.99375 6.41629 9.94405 6.41477 9.89547 6.4229C9.84689 6.43103 9.80039 6.44864 9.75862 6.47474C9.71686 6.50084 9.68064 6.53491 9.65203 6.57501C9.62343 6.6151 9.60301 6.66044 9.59193 6.70843C9.52919 6.98212 9.49762 7.26202 9.4978 7.54281C9.49375 7.97326 9.54863 8.40224 9.66093 8.81781L5.01543 8.27181H5.00755L3.5128 8.09556H3.50305L2.00605 7.91781ZM4.1128 2.16831L5.56893 2.33893H5.57268L13.9052 3.32106C13.7103 3.76489 13.614 4.24567 13.6228 4.73031C13.6197 5.13859 13.6863 5.54441 13.8197 5.93031L5.70355 4.97743C5.60378 4.5906 5.55561 4.19227 5.5603 3.79281C5.55977 3.55813 5.57417 3.32366 5.60343 3.09081C5.60973 3.04196 5.60635 2.99234 5.59348 2.9448C5.58061 2.89725 5.5585 2.85271 5.52841 2.8137C5.49833 2.7747 5.46085 2.74201 5.41813 2.71749C5.37541 2.69298 5.32828 2.67711 5.27943 2.67081C5.23058 2.6645 5.18096 2.66788 5.13342 2.68076C5.08587 2.69363 5.04133 2.71574 5.00233 2.74582C4.96332 2.77591 4.93063 2.81338 4.90611 2.8561C4.8816 2.89882 4.86573 2.94596 4.85943 2.99481C4.82612 3.25949 4.80971 3.52603 4.8103 3.79281C4.80919 4.15926 4.84347 4.52495 4.91268 4.88481L4.07568 4.78656C3.92711 4.34602 3.85841 3.8825 3.8728 3.41781C3.87239 2.98981 3.95386 2.56569 4.1128 2.16831ZM14.7478 3.41781C14.7626 3.41786 14.7774 3.41698 14.7921 3.41518L23.1921 2.40831C23.0599 2.7934 22.9942 3.19818 22.9978 3.60531C22.9888 4.09096 23.0857 4.57274 23.2817 5.01718L14.7519 6.03943C14.6432 5.99631 14.3728 5.54518 14.3728 4.73031C14.3728 3.90793 14.6503 3.45156 14.7478 3.41781ZM12.0103 9.09231C11.8938 8.71186 11.8368 8.31567 11.8416 7.91781C11.8151 7.42496 11.9093 6.9331 12.1161 6.48493L13.9063 6.69493C13.7107 7.13895 13.614 7.62019 13.6228 8.10531C13.6197 8.51359 13.6863 8.9194 13.8197 9.30531L12.0103 9.09231ZM14.7531 9.41481C14.6436 9.37168 14.3728 8.92056 14.3728 8.10531C14.3728 7.28293 14.6503 6.82656 14.7478 6.79281C14.7627 6.79288 14.7776 6.792 14.7924 6.79018L23.1924 5.78331C23.0601 6.16838 22.9943 6.57316 22.9978 6.98031C22.9905 7.46634 23.0903 7.94801 23.2903 8.39106L14.7531 9.41481ZM10.7533 0.867808C11.165 0.819059 11.581 0.819059 11.9927 0.867808L20.9477 1.92081L14.7478 2.66518L5.66043 1.59418H5.65668L5.1808 1.53831L10.7533 0.867808ZM1.99293 1.91781L3.34593 2.07643C3.19847 2.50829 3.12309 2.96147 3.1228 3.41781C3.11929 3.84546 3.16624 4.27203 3.26268 4.68868L2.00605 4.54281C1.9003 4.50906 1.6228 4.05268 1.6228 3.23031C1.6228 2.42106 1.8913 1.96656 1.99293 1.91968V1.91781ZM1.9978 13.1678C1.7353 13.1678 1.2478 12.3136 1.2478 10.9178C1.2478 9.53031 1.72705 8.68056 1.99218 8.66968L2.84493 8.76981C2.51779 9.53823 2.35934 10.3679 2.3803 11.2028C2.37185 11.8956 2.47427 12.5853 2.68368 13.2458L2.04168 13.1708C2.02713 13.1689 2.01248 13.1679 1.9978 13.1678ZM19.5478 14.4428C19.5113 14.3931 19.4629 14.3534 19.4071 14.3272C19.3513 14.301 19.2898 14.2892 19.2283 14.2928C19.1673 14.2963 19.1081 14.3147 19.0558 14.3463C19.0035 14.378 18.9597 14.4219 18.9283 14.4743L18.4978 15.1891V11.9723L19.9978 11.7916V15.0428L19.5478 14.4428ZM20.7478 13.9452V11.7012L20.9833 11.6727C21.0821 11.6609 21.1722 11.6103 21.2337 11.5321C21.2953 11.4539 21.3232 11.3545 21.3114 11.2557C21.2996 11.1569 21.2491 11.0668 21.1709 11.0053C21.0927 10.9437 20.9932 10.9158 20.8944 10.9276L20.3319 10.9958H20.3293L18.0793 11.2658C18.0752 11.2658 18.0718 11.2688 18.0677 11.2692L17.6004 11.3258C17.5056 11.3371 17.4186 11.3841 17.3573 11.4573C17.2959 11.5306 17.2648 11.6244 17.2703 11.7198C17.2758 11.8151 17.3175 11.9048 17.3869 11.9705C17.4562 12.0362 17.548 12.0729 17.6436 12.0732C17.6583 12.0732 17.6731 12.0724 17.6878 12.0706L17.7478 12.0631V14.3052L14.7478 14.6652L14.7148 14.6614C14.4561 14.5988 13.9978 13.7989 13.9978 12.4178C13.9978 11.0221 14.4853 10.1678 14.7478 10.1678C14.7627 10.1679 14.7776 10.167 14.7924 10.1652L23.0353 9.17706C22.751 9.8456 22.6105 10.5664 22.6228 11.2928C22.5957 12.1137 22.7816 12.9276 23.1624 13.6553L20.7478 13.9452Z" fill="#FF8800"/>
</svg>
