<svg width="25" height="17" viewBox="0 0 25 17" fill="none" xmlns="http://www.w3.org/2000/svg">
<path d="M24.1317 5.66781L24.138 5.66481C24.2351 5.662 24.3273 5.62166 24.3952 5.55228C24.4631 5.4829 24.5014 5.38989 24.5022 5.29281C24.5027 5.24376 24.4935 5.19509 24.4751 5.14961C24.4567 5.10414 24.4295 5.06277 24.395 5.02789C24.3605 4.99301 24.3195 4.96532 24.2742 4.94643C24.2289 4.92753 24.1803 4.9178 24.1313 4.91781C24.0255 4.88406 23.748 4.42768 23.748 3.60531C23.748 2.78293 24.0259 2.32656 24.1317 2.29281L24.1369 2.29018C24.2289 2.28363 24.3153 2.2434 24.3795 2.17717C24.4437 2.11095 24.4813 2.02339 24.485 1.93122C24.4887 1.83906 24.4583 1.74876 24.3996 1.67759C24.341 1.60641 24.2581 1.55936 24.1669 1.54543L12.081 0.124182C11.6106 0.0683066 11.1351 0.0683066 10.6647 0.124182L1.95342 1.17043H1.9478C1.24242 1.21918 0.873047 2.22943 0.873047 3.23031C0.848512 3.82542 1.00545 4.41393 1.32305 4.91781C1.00534 5.42164 0.848392 6.01018 0.873047 6.60531C0.852905 7.17814 0.995961 7.7449 1.28555 8.23956C0.767672 8.76081 0.498047 9.84231 0.498047 10.9178C0.498047 12.3961 1.00467 13.8927 1.9733 13.9178L14.7042 15.4156C14.7187 15.4172 14.7334 15.418 14.748 15.4178C14.763 15.4179 14.7779 15.417 14.7927 15.4152L17.748 15.0604V16.5428C17.748 16.6248 17.7749 16.7046 17.8245 16.7699C17.8742 16.8352 17.9439 16.8824 18.0229 16.9043C18.0556 16.9132 18.0892 16.9177 18.123 16.9178C18.1878 16.9178 18.2514 16.901 18.3077 16.8692C18.364 16.8373 18.4111 16.7914 18.4444 16.7359L19.2825 15.3391L20.073 16.3928C20.1203 16.4558 20.1861 16.5023 20.2612 16.5258C20.3364 16.5492 20.417 16.5485 20.4916 16.5236C20.5663 16.4987 20.6312 16.4509 20.6773 16.3871C20.7233 16.3232 20.748 16.2465 20.748 16.1678V14.7008L24.1677 14.2902C24.2626 14.2789 24.3497 14.2317 24.4111 14.1584C24.4724 14.085 24.5034 13.9909 24.4977 13.8955C24.492 13.8 24.45 13.7103 24.3804 13.6447C24.3108 13.5792 24.2187 13.5427 24.123 13.5428C23.8605 13.5428 23.373 12.6886 23.373 11.2928C23.373 9.90906 23.8335 9.10806 24.123 9.04281C24.223 9.04311 24.319 9.00383 24.39 8.93355C24.4611 8.86328 24.5014 8.76773 24.5022 8.66781C24.503 8.57614 24.4698 8.48742 24.4091 8.41874C24.3484 8.35005 24.2644 8.30627 24.1733 8.29581C24.1585 8.29405 24.1436 8.29305 24.1287 8.29281C24.021 8.25156 23.748 7.79631 23.748 6.98031C23.748 6.15531 24.0259 5.70156 24.1317 5.66781ZM12.6057 14.4132C12.2517 13.7031 12.0855 12.9141 12.123 12.1216C12.0956 11.3607 12.2435 10.6036 12.5554 9.90906L13.7903 10.0542C13.4076 10.7817 13.2208 11.5962 13.248 12.4178C13.2353 13.1454 13.3759 13.8676 13.6605 14.5373L12.6057 14.4132ZM11.0922 14.2351C10.7499 13.5287 10.5886 12.7483 10.623 11.9641C10.5929 11.1967 10.7454 10.4332 11.0678 9.73618L11.769 9.81868C11.4899 10.5536 11.3555 11.3356 11.373 12.1216C11.3613 12.8663 11.4816 13.6072 11.7282 14.3101L11.0922 14.2351ZM5.03067 13.5226C4.74508 12.8471 4.60859 12.118 4.63055 11.3851C4.58671 10.5712 4.76728 9.761 5.15255 9.04281L10.2387 9.64018C10.2499 9.64018 10.26 9.64693 10.2713 9.64693C10.2742 9.64711 10.277 9.64711 10.2799 9.64693C9.99548 10.3857 9.8573 11.1726 9.87305 11.9641C9.8622 12.7016 9.9797 13.4354 10.2203 14.1327L5.03067 13.5226ZM3.5333 13.3467C3.24485 12.6698 3.10741 11.9382 3.13055 11.2028C3.08614 10.3907 3.26512 9.58188 3.64805 8.86431L4.3463 8.94643C4.0172 9.71592 3.85784 10.5473 3.87905 11.3839C3.87028 12.0753 3.97154 12.7636 4.17905 13.4232L3.5333 13.3467ZM2.0063 7.91781C1.90055 7.88406 1.62305 7.42768 1.62305 6.60531C1.62305 5.79006 1.8953 5.33556 1.99505 5.29506L3.77142 5.50206C3.7778 5.50206 3.78267 5.50693 3.78867 5.50768L11.3314 6.39268C11.1636 6.88329 11.0825 7.39937 11.0918 7.91781C11.0908 8.28109 11.1297 8.64337 11.2077 8.99818L10.4903 8.91418C10.3143 8.47911 10.2317 8.01186 10.248 7.54281C10.2477 7.3188 10.2729 7.09549 10.323 6.87718C10.3341 6.82919 10.3356 6.77949 10.3275 6.73091C10.3194 6.68234 10.3018 6.63584 10.2757 6.59407C10.2496 6.5523 10.2155 6.51608 10.1754 6.48748C10.1353 6.45887 10.09 6.43845 10.042 6.42737C9.99399 6.41629 9.94429 6.41477 9.89571 6.4229C9.84714 6.43103 9.80064 6.44864 9.75887 6.47474C9.7171 6.50084 9.68088 6.53491 9.65228 6.57501C9.62368 6.6151 9.60325 6.66044 9.59217 6.70843C9.52944 6.98212 9.49786 7.26202 9.49805 7.54281C9.49399 7.97326 9.54887 8.40224 9.66117 8.81781L5.01567 8.27181H5.0078L3.51305 8.09556H3.5033L2.0063 7.91781ZM4.11305 2.16831L5.56917 2.33893H5.57292L13.9054 3.32106C13.7106 3.76489 13.6143 4.24567 13.623 4.73031C13.62 5.13859 13.6866 5.54441 13.8199 5.93031L5.7038 4.97743C5.60402 4.5906 5.55585 4.19227 5.56055 3.79281C5.56002 3.55813 5.57442 3.32366 5.60367 3.09081C5.60998 3.04196 5.6066 2.99234 5.59372 2.9448C5.58085 2.89725 5.55874 2.85271 5.52866 2.8137C5.49857 2.7747 5.4611 2.74201 5.41838 2.71749C5.37566 2.69298 5.32852 2.67711 5.27967 2.67081C5.23082 2.6645 5.18121 2.66788 5.13366 2.68076C5.08611 2.69363 5.04157 2.71574 5.00257 2.74582C4.96357 2.77591 4.93088 2.81338 4.90636 2.8561C4.88184 2.89882 4.86598 2.94596 4.85967 2.99481C4.82637 3.25949 4.80996 3.52603 4.81055 3.79281C4.80943 4.15926 4.84371 4.52495 4.91292 4.88481L4.07592 4.78656C3.92736 4.34602 3.85865 3.8825 3.87305 3.41781C3.87264 2.98981 3.9541 2.56569 4.11305 2.16831ZM14.748 3.41781C14.7628 3.41786 14.7776 3.41698 14.7923 3.41518L23.1923 2.40831C23.0601 2.7934 22.9944 3.19818 22.998 3.60531C22.9891 4.09096 23.0859 4.57274 23.2819 5.01718L14.7522 6.03943C14.6434 5.99631 14.373 5.54518 14.373 4.73031C14.373 3.90793 14.6505 3.45156 14.748 3.41781ZM12.0105 9.09231C11.894 8.71186 11.8371 8.31567 11.8418 7.91781C11.8153 7.42496 11.9096 6.9331 12.1163 6.48493L13.9065 6.69493C13.7109 7.13895 13.6142 7.62019 13.623 8.10531C13.62 8.51359 13.6866 8.9194 13.8199 9.30531L12.0105 9.09231ZM14.7533 9.41481C14.6438 9.37168 14.373 8.92056 14.373 8.10531C14.373 7.28293 14.6505 6.82656 14.748 6.79281C14.763 6.79288 14.7779 6.792 14.7927 6.79018L23.1927 5.78331C23.0604 6.16838 22.9946 6.57316 22.998 6.98031C22.9907 7.46634 23.0906 7.94801 23.2905 8.39106L14.7533 9.41481ZM10.7535 0.867808C11.1652 0.819059 11.5812 0.819059 11.9929 0.867808L20.9479 1.92081L14.748 2.66518L5.66067 1.59418H5.65692L5.18105 1.53831L10.7535 0.867808ZM1.99317 1.91781L3.34617 2.07643C3.19871 2.50829 3.12333 2.96147 3.12305 3.41781C3.11953 3.84546 3.16648 4.27203 3.26292 4.68868L2.0063 4.54281C1.90055 4.50906 1.62305 4.05268 1.62305 3.23031C1.62305 2.42106 1.89155 1.96656 1.99317 1.91968V1.91781ZM1.99805 13.1678C1.73555 13.1678 1.24805 12.3136 1.24805 10.9178C1.24805 9.53031 1.7273 8.68056 1.99242 8.66968L2.84517 8.76981C2.51803 9.53823 2.35959 10.3679 2.38055 11.2028C2.37209 11.8956 2.47451 12.5853 2.68392 13.2458L2.04192 13.1708C2.02738 13.1689 2.01272 13.1679 1.99805 13.1678ZM19.548 14.4428C19.5115 14.3931 19.4632 14.3534 19.4074 14.3272C19.3516 14.301 19.2901 14.2892 19.2285 14.2928C19.1675 14.2963 19.1083 14.3147 19.056 14.3463C19.0037 14.378 18.96 14.4219 18.9285 14.4743L18.498 15.1891V11.9723L19.998 11.7916V15.0428L19.548 14.4428ZM20.748 13.9452V11.7012L20.9835 11.6727C21.0824 11.6609 21.1724 11.6103 21.234 11.5321C21.2955 11.4539 21.3235 11.3545 21.3117 11.2557C21.2999 11.1569 21.2493 11.0668 21.1711 11.0053C21.0929 10.9437 20.9935 10.9158 20.8947 10.9276L20.3322 10.9958H20.3295L18.0795 11.2658C18.0754 11.2658 18.072 11.2688 18.0679 11.2692L17.6007 11.3258C17.5058 11.3371 17.4189 11.3841 17.3575 11.4573C17.2962 11.5306 17.2651 11.6244 17.2706 11.7198C17.2761 11.8151 17.3178 11.9048 17.3871 11.9705C17.4565 12.0362 17.5483 12.0729 17.6438 12.0732C17.6586 12.0732 17.6734 12.0724 17.688 12.0706L17.748 12.0631V14.3052L14.748 14.6652L14.715 14.6614C14.4563 14.5988 13.998 13.7989 13.998 12.4178C13.998 11.0221 14.4855 10.1678 14.748 10.1678C14.763 10.1679 14.7779 10.167 14.7927 10.1652L23.0355 9.17706C22.7513 9.8456 22.6107 10.5664 22.623 11.2928C22.5959 12.1137 22.7818 12.9276 23.1627 13.6553L20.748 13.9452Z" fill="#0D99FF"/>
</svg>
