<svg width="22" height="21" viewBox="0 0 22 21" fill="none" xmlns="http://www.w3.org/2000/svg">
<path d="M11.0357 18.3713C8.1865 18.3717 5.45574 16.8038 4.07537 14.2534C2.30987 10.992 3.08312 6.88355 5.91512 4.48505C8.72799 2.1023 12.8905 2.0108 15.8132 4.26642C15.8522 4.29653 15.8849 4.33403 15.9094 4.37677C15.9339 4.41951 15.9497 4.46665 15.956 4.5155C15.9622 4.56436 15.9588 4.61397 15.9459 4.66151C15.933 4.70904 15.9109 4.75357 15.8807 4.79255C15.8506 4.83152 15.8131 4.86419 15.7704 4.88868C15.7277 4.91316 15.6805 4.92899 15.6317 4.93526C15.5828 4.94153 15.5332 4.93811 15.4857 4.92521C15.4381 4.9123 15.3936 4.89016 15.3546 4.86005C12.7105 2.81892 8.94437 2.90142 6.39999 5.0573C3.83762 7.2278 3.13712 10.9455 4.73499 13.8964C6.19337 16.5904 9.316 18.0709 12.3325 17.4998C15.6351 16.8724 18.1255 13.8634 18.1255 10.5C18.1255 10.4006 18.165 10.3052 18.2353 10.2349C18.3057 10.1646 18.401 10.125 18.5005 10.125C18.6 10.125 18.6953 10.1646 18.7657 10.2349C18.836 10.3052 18.8755 10.4006 18.8755 10.5C18.8755 14.2178 16.1226 17.5437 12.4724 18.2367C11.9988 18.3264 11.5178 18.3715 11.0357 18.3713Z" fill="#FF8800"/>
<path d="M17.4951 14.625C17.4294 14.6251 17.3649 14.6077 17.308 14.5748L16.3337 14.0123C16.2907 13.9879 16.253 13.9552 16.2227 13.9161C16.1924 13.877 16.1701 13.8323 16.1572 13.7846C16.1442 13.7368 16.1408 13.687 16.1472 13.638C16.1536 13.5889 16.1696 13.5416 16.1943 13.4988C16.2191 13.456 16.252 13.4185 16.2913 13.3884C16.3306 13.3584 16.3754 13.3364 16.4232 13.3238C16.471 13.3111 16.5209 13.3081 16.5699 13.3148C16.6189 13.3215 16.6661 13.3378 16.7087 13.3628L17.683 13.9253C17.7545 13.9666 17.8104 14.0303 17.842 14.1066C17.8735 14.1829 17.8791 14.2675 17.8576 14.3473C17.8362 14.427 17.7891 14.4975 17.7235 14.5477C17.658 14.5979 17.5777 14.6251 17.4951 14.625ZM5.47899 7.68755C5.41328 7.68757 5.34873 7.67023 5.29186 7.6373L4.31761 7.0748C4.27462 7.05036 4.23689 7.01765 4.20659 6.97857C4.17629 6.93948 4.15402 6.89479 4.14106 6.84706C4.1281 6.79933 4.12471 6.74951 4.13109 6.70047C4.13746 6.65143 4.15347 6.60413 4.1782 6.5613C4.20293 6.51847 4.23589 6.48096 4.27517 6.45092C4.31446 6.42088 4.3593 6.3989 4.40711 6.38626C4.45492 6.37362 4.50476 6.37056 4.55376 6.37726C4.60276 6.38396 4.64995 6.40029 4.69261 6.4253L5.66686 6.9878C5.73838 7.02909 5.79426 7.09284 5.82584 7.16914C5.85742 7.24544 5.86293 7.33003 5.84152 7.40979C5.82011 7.48954 5.77297 7.56 5.70742 7.61022C5.64186 7.66045 5.56157 7.68763 5.47899 7.68755ZM7.25011 17.37C7.18432 17.37 7.1197 17.3526 7.06275 17.3197C7.00579 17.2867 6.95851 17.2394 6.92564 17.1824C6.89277 17.1254 6.87548 17.0607 6.8755 16.995C6.87551 16.9292 6.89284 16.8645 6.92574 16.8075L7.48824 15.8333C7.51268 15.7903 7.54539 15.7526 7.58447 15.7223C7.62356 15.692 7.66825 15.6697 7.71598 15.6567C7.76371 15.6438 7.81352 15.6404 7.86257 15.6468C7.91161 15.6531 7.95891 15.6692 8.00174 15.6939C8.04457 15.7186 8.08208 15.7516 8.11212 15.7909C8.14216 15.8301 8.16413 15.875 8.17677 15.9228C8.18942 15.9706 8.19247 16.0204 8.18577 16.0694C8.17908 16.1184 8.16275 16.1656 8.13774 16.2083L7.57524 17.1825C7.54241 17.2397 7.49504 17.2872 7.43794 17.3201C7.38083 17.353 7.31603 17.3703 7.25011 17.37ZM14.7509 17.37C14.685 17.3702 14.6202 17.3529 14.5631 17.32C14.506 17.2871 14.4586 17.2397 14.4257 17.1825L13.8632 16.2083C13.8143 16.1222 13.8014 16.0203 13.8273 15.9247C13.8533 15.8291 13.916 15.7477 14.0017 15.6982C14.0875 15.6487 14.1893 15.6351 14.2851 15.6604C14.3808 15.6857 14.4627 15.7479 14.5127 15.8333L15.0752 16.8075C15.1081 16.8645 15.1255 16.9292 15.1255 16.995C15.1255 17.0607 15.1082 17.1254 15.0753 17.1824C15.0425 17.2394 14.9952 17.2867 14.9382 17.3197C14.8813 17.3526 14.8167 17.37 14.7509 17.37ZM7.81336 5.35392C7.74746 5.35406 7.68269 5.3368 7.6256 5.30388C7.56851 5.27095 7.52112 5.22354 7.48824 5.16642L6.92574 4.19217C6.87679 4.10609 6.86389 4.00414 6.88983 3.90857C6.91578 3.81301 6.97847 3.73159 7.06423 3.68207C7.14999 3.63256 7.25185 3.61897 7.34758 3.64428C7.44332 3.6696 7.52516 3.73175 7.57524 3.81717L8.13774 4.79142C8.17064 4.8484 8.18796 4.91303 8.18798 4.97883C8.188 5.04462 8.1707 5.10926 8.13783 5.16626C8.10497 5.22325 8.05768 5.2706 8.00073 5.30354C7.94377 5.33648 7.87916 5.35386 7.81336 5.35392ZM4.50586 14.625C4.42328 14.6251 4.34299 14.5979 4.27744 14.5477C4.21188 14.4975 4.16474 14.427 4.14333 14.3473C4.12192 14.2675 4.12743 14.1829 4.15901 14.1066C4.19059 14.0303 4.24647 13.9666 4.31799 13.9253L5.29224 13.3628C5.3349 13.3378 5.38209 13.3215 5.43109 13.3148C5.48009 13.3081 5.52993 13.3111 5.57774 13.3238C5.62556 13.3364 5.67039 13.3584 5.70968 13.3884C5.74897 13.4185 5.78192 13.456 5.80665 13.4988C5.83138 13.5416 5.84739 13.5889 5.85376 13.638C5.86014 13.687 5.85675 13.7368 5.84379 13.7846C5.83083 13.8323 5.80856 13.877 5.77826 13.9161C5.74796 13.9552 5.71023 13.9879 5.66724 14.0123L4.69299 14.5748C4.63611 14.6077 4.57157 14.625 4.50586 14.625ZM11.0005 18.375C10.901 18.375 10.8056 18.3355 10.7353 18.2652C10.665 18.1949 10.6255 18.0995 10.6255 18V16.875C10.6255 16.7756 10.665 16.6802 10.7353 16.6099C10.8056 16.5396 10.901 16.5 11.0005 16.5C11.0999 16.5 11.1953 16.5396 11.2657 16.6099C11.336 16.6802 11.3755 16.7756 11.3755 16.875V18C11.3755 18.0995 11.336 18.1949 11.2657 18.2652C11.1953 18.3355 11.0999 18.375 11.0005 18.375ZM11.0005 4.50005C10.901 4.50005 10.8056 4.46054 10.7353 4.39021C10.665 4.31989 10.6255 4.22451 10.6255 4.12505V3.00005C10.6255 2.90059 10.665 2.80521 10.7353 2.73488C10.8056 2.66456 10.901 2.62505 11.0005 2.62505C11.0999 2.62505 11.1953 2.66456 11.2657 2.73488C11.336 2.80521 11.3755 2.90059 11.3755 3.00005V4.12505C11.3755 4.22451 11.336 4.31989 11.2657 4.39021C11.1953 4.46054 11.0999 4.50005 11.0005 4.50005ZM4.62549 10.875H3.50049C3.40103 10.875 3.30565 10.8355 3.23532 10.7652C3.165 10.6949 3.12549 10.5995 3.12549 10.5C3.12549 10.4006 3.165 10.3052 3.23532 10.2349C3.30565 10.1646 3.40103 10.125 3.50049 10.125H4.62549C4.72494 10.125 4.82033 10.1646 4.89065 10.2349C4.96098 10.3052 5.00049 10.4006 5.00049 10.5C5.00049 10.5995 4.96098 10.6949 4.89065 10.7652C4.82033 10.8355 4.72494 10.875 4.62549 10.875ZM13.6724 13.1584C13.5729 13.1584 13.4775 13.1189 13.4072 13.0486C13.3369 12.9783 13.2974 12.8829 13.2974 12.7834V12.1249H11.4696C11.3702 12.1249 11.2748 12.0854 11.2044 12.0151C11.1341 11.9448 11.0946 11.8494 11.0946 11.7499V11.3022C11.0946 11.2272 11.1171 11.154 11.1591 11.0918L13.2471 8.0063C13.3169 7.90355 13.4331 7.84167 13.5576 7.84167H13.6724C13.7718 7.84167 13.8672 7.88118 13.9375 7.95151C14.0079 8.02184 14.0474 8.11722 14.0474 8.21667V11.3749H14.4955C14.5949 11.3749 14.6903 11.4144 14.7607 11.4848C14.831 11.5551 14.8705 11.6505 14.8705 11.7499C14.8705 11.8494 14.831 11.9448 14.7607 12.0151C14.6903 12.0854 14.5949 12.1249 14.4955 12.1249H14.0474V12.7834C14.0474 12.8829 14.0079 12.9783 13.9375 13.0486C13.8672 13.1189 13.7718 13.1584 13.6724 13.1584ZM11.8735 11.3749H13.2974V9.27005L11.8735 11.3749ZM10.1624 13.1584H7.50549C7.4439 13.1584 7.38327 13.1431 7.32895 13.1141C7.27463 13.0851 7.22829 13.0431 7.19401 12.9919C7.15973 12.9408 7.13858 12.882 7.1324 12.8207C7.12623 12.7594 7.13523 12.6975 7.15861 12.6405C7.43799 11.9614 7.95886 11.4979 8.46286 11.0498C8.81049 10.74 9.13861 10.4479 9.37224 10.101C9.59236 9.77405 9.65686 9.37842 9.54061 9.06792C9.36624 8.60067 8.90011 8.58905 8.76361 8.59467C8.43774 8.61155 8.06311 8.8028 7.96149 9.1928C7.90899 9.39305 7.70386 9.51305 7.50399 9.4613C7.4078 9.43601 7.32556 9.37361 7.2753 9.28778C7.22503 9.20195 7.21085 9.09969 7.23586 9.00342C7.40724 8.34792 8.00536 7.88292 8.72499 7.84542C9.42136 7.81167 10.012 8.18667 10.243 8.80505C10.4459 9.34655 10.3525 9.9878 9.99436 10.5199C9.70786 10.9452 9.32836 11.283 8.96161 11.6097C8.66724 11.8718 8.38336 12.1245 8.16099 12.4084H10.1624C10.2618 12.4084 10.3572 12.4479 10.4275 12.5183C10.4979 12.5886 10.5374 12.684 10.5374 12.7834C10.5374 12.8829 10.4979 12.9783 10.4275 13.0486C10.3572 13.1189 10.2618 13.1584 10.1624 13.1584ZM17.2337 3.3773C17.1585 3.37759 17.085 3.35524 17.0226 3.31315C16.9603 3.27107 16.9121 3.21119 16.8843 3.14132C16.8564 3.07145 16.8503 2.99482 16.8666 2.9214C16.8829 2.84799 16.9209 2.78118 16.9757 2.72967L18.0719 1.69242C18.1449 1.62856 18.2398 1.59545 18.3367 1.60003C18.4336 1.6046 18.525 1.64652 18.5916 1.71697C18.6583 1.78743 18.6951 1.88097 18.6943 1.97797C18.6936 2.07497 18.6553 2.16791 18.5875 2.2373L17.4914 3.27455C17.422 3.3408 17.3297 3.37762 17.2337 3.3773ZM14.4775 5.98505C14.4023 5.98534 14.3287 5.96299 14.2664 5.9209C14.2041 5.87882 14.1558 5.81894 14.128 5.74907C14.1002 5.6792 14.094 5.60257 14.1103 5.52915C14.1266 5.45574 14.1647 5.38893 14.2195 5.33742L15.3257 4.29042C15.3988 4.22656 15.4937 4.19345 15.5906 4.19803C15.6875 4.2026 15.7788 4.24452 15.8455 4.31497C15.9122 4.38543 15.949 4.47897 15.9482 4.57597C15.9474 4.67297 15.9092 4.76591 15.8414 4.8353L14.7351 5.8823C14.6656 5.94838 14.5734 5.98517 14.4775 5.98505Z" fill="#207092"/>
<path d="M11.0109 20.6217C8.75227 20.6217 6.51652 19.8705 4.70152 18.4272C1.8714 16.1772 0.448647 12.5562 0.988647 8.97904C1.53015 5.39292 4.07752 2.26317 7.47915 1.00504C10.8676 -0.248208 14.6975 0.406543 17.4729 2.71392C17.5118 2.74506 17.544 2.78364 17.5678 2.82739C17.5916 2.87115 17.6065 2.91921 17.6115 2.96876C17.6165 3.01832 17.6116 3.06837 17.5971 3.11601C17.5826 3.16365 17.5587 3.20792 17.5268 3.24623C17.495 3.28454 17.4559 3.31612 17.4117 3.33914C17.3675 3.36215 17.3192 3.37613 17.2696 3.38027C17.2199 3.38441 17.17 3.37861 17.1226 3.36323C17.0752 3.34785 17.0314 3.32318 16.9936 3.29067C14.4238 1.15429 10.8778 0.547542 7.7394 1.70854C4.59015 2.87329 2.2314 5.77092 1.7304 9.09117C1.23052 12.4039 2.54752 15.7564 5.1684 17.841C7.77952 19.917 11.3334 20.4469 14.4433 19.2222C16.7221 18.3248 18.5956 16.5207 19.5838 14.2718C20.113 13.0652 20.3824 11.7607 20.3743 10.4431C20.3662 9.12556 20.0809 7.82446 19.5369 6.62442C19.4961 6.53391 19.4928 6.43092 19.5279 6.33802C19.5629 6.24512 19.6333 6.1699 19.7237 6.12885C19.8141 6.0878 19.9171 6.08427 20.0101 6.11903C20.1031 6.15379 20.1785 6.22401 20.2198 6.31429C20.8073 7.61031 21.1154 9.01547 21.1241 10.4384C21.1329 11.8613 20.842 13.2702 20.2704 14.5733C19.2031 17.0022 17.1793 18.9507 14.7178 19.92C13.537 20.3842 12.2796 20.6222 11.0109 20.6217Z" fill="#207092"/>
<path d="M14.4771 5.98502C14.3777 5.98582 14.282 5.94707 14.2111 5.87731C14.1402 5.80755 14.0999 5.71248 14.0991 5.61302C14.0983 5.51357 14.1371 5.41787 14.2068 5.34698C14.2766 5.27609 14.3717 5.23582 14.4711 5.23502L17.7164 5.18327L17.9556 1.93765C17.9587 1.88836 17.9716 1.84019 17.9935 1.79595C18.0155 1.75171 18.046 1.71229 18.0834 1.68002C18.1208 1.64775 18.1642 1.62326 18.2112 1.608C18.2581 1.59274 18.3077 1.58701 18.3569 1.59115C18.456 1.59844 18.5482 1.6448 18.6132 1.72005C18.6782 1.79529 18.7106 1.89325 18.7034 1.9924L18.439 5.58002C18.4322 5.67344 18.3906 5.76093 18.3226 5.82526C18.2545 5.88959 18.1648 5.92612 18.0711 5.92765L14.4831 5.98502H14.4771Z" fill="#207092"/>
</svg>
