<svg width="22" height="21" viewBox="0 0 22 21" fill="none" xmlns="http://www.w3.org/2000/svg">
<path d="M11.0353 18.3713C8.18601 18.3717 5.45526 16.8038 4.07488 14.2534C2.30938 10.992 3.08263 6.88355 5.91463 4.48505C8.72751 2.1023 12.89 2.0108 15.8128 4.26642C15.8517 4.29653 15.8844 4.33403 15.9089 4.37677C15.9334 4.41951 15.9492 4.46665 15.9555 4.5155C15.9617 4.56436 15.9583 4.61397 15.9454 4.66151C15.9325 4.70904 15.9104 4.75357 15.8803 4.79255C15.8501 4.83152 15.8126 4.86419 15.7699 4.88868C15.7272 4.91316 15.68 4.92899 15.6312 4.93526C15.5823 4.94153 15.5327 4.93811 15.4852 4.92521C15.4376 4.9123 15.3931 4.89016 15.3541 4.86005C12.71 2.81892 8.94388 2.90142 6.39951 5.0573C3.83713 7.2278 3.13663 10.9455 4.73451 13.8964C6.19288 16.5904 9.31551 18.0709 12.332 17.4998C15.6346 16.8724 18.125 13.8634 18.125 10.5C18.125 10.4006 18.1645 10.3052 18.2348 10.2349C18.3052 10.1646 18.4005 10.125 18.5 10.125C18.5995 10.125 18.6948 10.1646 18.7652 10.2349C18.8355 10.3052 18.875 10.4006 18.875 10.5C18.875 14.2178 16.1221 17.5437 12.4719 18.2367C11.9983 18.3264 11.5173 18.3715 11.0353 18.3713Z" fill="#0D99FF"/>
<path d="M17.4946 14.625C17.4289 14.6251 17.3644 14.6077 17.3075 14.5748L16.3333 14.0123C16.2903 13.9879 16.2525 13.9552 16.2222 13.9161C16.1919 13.877 16.1697 13.8323 16.1567 13.7846C16.1437 13.7368 16.1403 13.687 16.1467 13.638C16.1531 13.5889 16.1691 13.5416 16.1938 13.4988C16.2186 13.456 16.2515 13.4185 16.2908 13.3884C16.3301 13.3584 16.3749 13.3364 16.4227 13.3238C16.4706 13.3111 16.5204 13.3081 16.5694 13.3148C16.6184 13.3215 16.6656 13.3378 16.7083 13.3628L17.6825 13.9253C17.754 13.9666 17.8099 14.0303 17.8415 14.1066C17.8731 14.1829 17.8786 14.2675 17.8572 14.3473C17.8357 14.427 17.7886 14.4975 17.7231 14.5477C17.6575 14.5979 17.5772 14.6251 17.4946 14.625ZM5.4785 7.68755C5.41279 7.68757 5.34824 7.67023 5.29137 7.6373L4.31712 7.0748C4.27413 7.05036 4.2364 7.01765 4.2061 6.97857C4.1758 6.93948 4.15353 6.89479 4.14057 6.84706C4.12761 6.79933 4.12422 6.74951 4.1306 6.70047C4.13697 6.65143 4.15299 6.60413 4.17771 6.5613C4.20244 6.51847 4.2354 6.48096 4.27468 6.45092C4.31397 6.42088 4.35881 6.3989 4.40662 6.38626C4.45443 6.37362 4.50427 6.37056 4.55327 6.37726C4.60227 6.38396 4.64946 6.40029 4.69212 6.4253L5.66637 6.9878C5.73789 7.02909 5.79377 7.09284 5.82535 7.16914C5.85693 7.24544 5.86244 7.33003 5.84103 7.40979C5.81962 7.48954 5.77248 7.56 5.70693 7.61022C5.64138 7.66045 5.56108 7.68763 5.4785 7.68755ZM7.24962 17.37C7.18383 17.37 7.11921 17.3526 7.06226 17.3197C7.00531 17.2867 6.95802 17.2394 6.92515 17.1824C6.89229 17.1254 6.87499 17.0607 6.87501 16.995C6.87503 16.9292 6.89235 16.8645 6.92525 16.8075L7.48775 15.8333C7.51219 15.7903 7.5449 15.7526 7.58398 15.7223C7.62307 15.692 7.66776 15.6697 7.71549 15.6567C7.76322 15.6438 7.81304 15.6404 7.86208 15.6468C7.91112 15.6531 7.95842 15.6692 8.00125 15.6939C8.04408 15.7186 8.08159 15.7516 8.11163 15.7909C8.14167 15.8301 8.16365 15.875 8.17629 15.9228C8.18893 15.9706 8.19199 16.0204 8.18529 16.0694C8.17859 16.1184 8.16226 16.1656 8.13725 16.2083L7.57475 17.1825C7.54192 17.2397 7.49455 17.2872 7.43745 17.3201C7.38035 17.353 7.31554 17.3703 7.24962 17.37ZM14.7504 17.37C14.6845 17.3702 14.6197 17.3529 14.5626 17.32C14.5055 17.2871 14.4581 17.2397 14.4252 17.1825L13.8627 16.2083C13.8138 16.1222 13.8009 16.0203 13.8268 15.9247C13.8528 15.8291 13.9155 15.7477 14.0012 15.6982C14.087 15.6487 14.1889 15.6351 14.2846 15.6604C14.3803 15.6857 14.4622 15.7479 14.5123 15.8333L15.0748 16.8075C15.1076 16.8645 15.125 16.9292 15.125 16.995C15.125 17.0607 15.1077 17.1254 15.0748 17.1824C15.042 17.2394 14.9947 17.2867 14.9377 17.3197C14.8808 17.3526 14.8162 17.37 14.7504 17.37ZM7.81288 5.35392C7.74697 5.35406 7.6822 5.3368 7.62511 5.30388C7.56802 5.27095 7.52064 5.22354 7.48775 5.16642L6.92525 4.19217C6.87631 4.10609 6.8634 4.00414 6.88934 3.90857C6.91529 3.81301 6.97798 3.73159 7.06374 3.68207C7.1495 3.63256 7.25136 3.61897 7.34709 3.64428C7.44283 3.6696 7.52467 3.73175 7.57475 3.81717L8.13725 4.79142C8.17015 4.8484 8.18747 4.91303 8.18749 4.97883C8.18751 5.04462 8.17021 5.10926 8.13735 5.16626C8.10448 5.22325 8.05719 5.2706 8.00024 5.30354C7.94329 5.33648 7.87867 5.35386 7.81288 5.35392ZM4.50537 14.625C4.4228 14.6251 4.3425 14.5979 4.27695 14.5477C4.2114 14.4975 4.16426 14.427 4.14284 14.3473C4.12143 14.2675 4.12694 14.1829 4.15852 14.1066C4.1901 14.0303 4.24599 13.9666 4.3175 13.9253L5.29175 13.3628C5.33441 13.3378 5.3816 13.3215 5.4306 13.3148C5.4796 13.3081 5.52944 13.3111 5.57725 13.3238C5.62507 13.3364 5.66991 13.3584 5.70919 13.3884C5.74848 13.4185 5.78143 13.456 5.80616 13.4988C5.83089 13.5416 5.8469 13.5889 5.85328 13.638C5.85965 13.687 5.85626 13.7368 5.8433 13.7846C5.83035 13.8323 5.80808 13.877 5.77778 13.9161C5.74747 13.9552 5.70974 13.9879 5.66675 14.0123L4.6925 14.5748C4.63562 14.6077 4.57108 14.625 4.50537 14.625ZM11 18.375C10.9005 18.375 10.8052 18.3355 10.7348 18.2652C10.6645 18.1949 10.625 18.0995 10.625 18V16.875C10.625 16.7756 10.6645 16.6802 10.7348 16.6099C10.8052 16.5396 10.9005 16.5 11 16.5C11.0995 16.5 11.1948 16.5396 11.2652 16.6099C11.3355 16.6802 11.375 16.7756 11.375 16.875V18C11.375 18.0995 11.3355 18.1949 11.2652 18.2652C11.1948 18.3355 11.0995 18.375 11 18.375ZM11 4.50005C10.9005 4.50005 10.8052 4.46054 10.7348 4.39021C10.6645 4.31989 10.625 4.22451 10.625 4.12505V3.00005C10.625 2.90059 10.6645 2.80521 10.7348 2.73488C10.8052 2.66456 10.9005 2.62505 11 2.62505C11.0995 2.62505 11.1948 2.66456 11.2652 2.73488C11.3355 2.80521 11.375 2.90059 11.375 3.00005V4.12505C11.375 4.22451 11.3355 4.31989 11.2652 4.39021C11.1948 4.46054 11.0995 4.50005 11 4.50005ZM4.625 10.875H3.5C3.40054 10.875 3.30516 10.8355 3.23483 10.7652C3.16451 10.6949 3.125 10.5995 3.125 10.5C3.125 10.4006 3.16451 10.3052 3.23483 10.2349C3.30516 10.1646 3.40054 10.125 3.5 10.125H4.625C4.72446 10.125 4.81984 10.1646 4.89016 10.2349C4.96049 10.3052 5 10.4006 5 10.5C5 10.5995 4.96049 10.6949 4.89016 10.7652C4.81984 10.8355 4.72446 10.875 4.625 10.875ZM13.6719 13.1584C13.5724 13.1584 13.477 13.1189 13.4067 13.0486C13.3364 12.9783 13.2969 12.8829 13.2969 12.7834V12.1249H11.4691C11.3697 12.1249 11.2743 12.0854 11.204 12.0151C11.1336 11.9448 11.0941 11.8494 11.0941 11.7499V11.3022C11.0941 11.2272 11.1166 11.154 11.1586 11.0918L13.2466 8.0063C13.3164 7.90355 13.4326 7.84167 13.5571 7.84167H13.6719C13.7713 7.84167 13.8667 7.88118 13.937 7.95151C14.0074 8.02184 14.0469 8.11722 14.0469 8.21667V11.3749H14.495C14.5945 11.3749 14.6898 11.4144 14.7602 11.4848C14.8305 11.5551 14.87 11.6505 14.87 11.7499C14.87 11.8494 14.8305 11.9448 14.7602 12.0151C14.6898 12.0854 14.5945 12.1249 14.495 12.1249H14.0469V12.7834C14.0469 12.8829 14.0074 12.9783 13.937 13.0486C13.8667 13.1189 13.7713 13.1584 13.6719 13.1584ZM11.873 11.3749H13.2969V9.27005L11.873 11.3749ZM10.1619 13.1584H7.505C7.44341 13.1584 7.38278 13.1431 7.32846 13.1141C7.27414 13.0851 7.2278 13.0431 7.19352 12.9919C7.15925 12.9408 7.13809 12.882 7.13192 12.8207C7.12574 12.7594 7.13474 12.6975 7.15812 12.6405C7.4375 11.9614 7.95837 11.4979 8.46237 11.0498C8.81 10.74 9.13813 10.4479 9.37175 10.101C9.59188 9.77405 9.65637 9.37842 9.54012 9.06792C9.36575 8.60067 8.89962 8.58905 8.76312 8.59467C8.43725 8.61155 8.06262 8.8028 7.961 9.1928C7.9085 9.39305 7.70337 9.51305 7.5035 9.4613C7.40731 9.43601 7.32507 9.37361 7.27481 9.28778C7.22455 9.20195 7.21037 9.09969 7.23537 9.00342C7.40675 8.34792 8.00488 7.88292 8.7245 7.84542C9.42088 7.81167 10.0115 8.18667 10.2425 8.80505C10.4454 9.34655 10.352 9.9878 9.99388 10.5199C9.70738 10.9452 9.32787 11.283 8.96112 11.6097C8.66675 11.8718 8.38287 12.1245 8.1605 12.4084H10.1619C10.2613 12.4084 10.3567 12.4479 10.427 12.5183C10.4974 12.5886 10.5369 12.684 10.5369 12.7834C10.5369 12.8829 10.4974 12.9783 10.427 13.0486C10.3567 13.1189 10.2613 13.1584 10.1619 13.1584ZM17.2333 3.3773C17.158 3.37759 17.0845 3.35524 17.0222 3.31315C16.9598 3.27107 16.9116 3.21119 16.8838 3.14132C16.8559 3.07145 16.8498 2.99482 16.8661 2.9214C16.8824 2.84799 16.9204 2.78118 16.9753 2.72967L18.0714 1.69242C18.1444 1.62856 18.2393 1.59545 18.3362 1.60003C18.4331 1.6046 18.5245 1.64652 18.5911 1.71697C18.6578 1.78743 18.6946 1.88097 18.6939 1.97797C18.6931 2.07497 18.6548 2.16791 18.587 2.2373L17.4909 3.27455C17.4215 3.3408 17.3292 3.37762 17.2333 3.3773ZM14.477 5.98505C14.4018 5.98534 14.3282 5.96299 14.2659 5.9209C14.2036 5.87882 14.1554 5.81894 14.1275 5.74907C14.0997 5.6792 14.0935 5.60257 14.1098 5.52915C14.1262 5.45574 14.1642 5.38893 14.219 5.33742L15.3253 4.29042C15.3983 4.22656 15.4932 4.19345 15.5901 4.19803C15.687 4.2026 15.7783 4.24452 15.845 4.31497C15.9117 4.38543 15.9485 4.47897 15.9477 4.57597C15.947 4.67297 15.9087 4.76591 15.8409 4.8353L14.7346 5.8823C14.6651 5.94838 14.5729 5.98517 14.477 5.98505Z" fill="#0D99FF"/>
<path d="M11.0107 20.6217C8.75203 20.6217 6.51628 19.8705 4.70128 18.4272C1.87115 16.1772 0.448403 12.5562 0.988403 8.97904C1.5299 5.39292 4.07728 2.26317 7.4789 1.00504C10.8674 -0.248208 14.6973 0.406543 17.4727 2.71392C17.5115 2.74506 17.5438 2.78364 17.5676 2.82739C17.5914 2.87115 17.6062 2.91921 17.6113 2.96876C17.6163 3.01832 17.6114 3.06837 17.5968 3.11601C17.5823 3.16365 17.5584 3.20792 17.5266 3.24623C17.4948 3.28454 17.4556 3.31612 17.4114 3.33914C17.3673 3.36215 17.319 3.37613 17.2693 3.38027C17.2197 3.38441 17.1697 3.37861 17.1223 3.36323C17.075 3.34785 17.0311 3.32318 16.9934 3.29067C14.4235 1.15429 10.8775 0.547542 7.73915 1.70854C4.5899 2.87329 2.23115 5.77092 1.73015 9.09117C1.23028 12.4039 2.54728 15.7564 5.16815 17.841C7.77928 19.917 11.3332 20.4469 14.443 19.2222C16.7219 18.3248 18.5954 16.5207 19.5835 14.2718C20.1128 13.0652 20.3821 11.7607 20.374 10.4431C20.366 9.12556 20.0806 7.82446 19.5367 6.62442C19.4958 6.53391 19.4926 6.43092 19.5276 6.33802C19.5626 6.24512 19.6331 6.1699 19.7235 6.12885C19.8138 6.0878 19.9168 6.08427 20.0098 6.11903C20.1028 6.15379 20.1782 6.22401 20.2195 6.31429C20.807 7.61031 21.1152 9.01547 21.1239 10.4384C21.1326 11.8613 20.8417 13.2702 20.2702 14.5733C19.2029 17.0022 17.179 18.9507 14.7175 19.92C13.5368 20.3842 12.2793 20.6222 11.0107 20.6217Z" fill="#207092"/>
<path d="M14.4766 5.98502C14.3772 5.98582 14.2815 5.94707 14.2106 5.87731C14.1397 5.80755 14.0994 5.71248 14.0986 5.61302C14.0978 5.51357 14.1366 5.41787 14.2064 5.34698C14.2761 5.27609 14.3712 5.23582 14.4706 5.23502L17.7159 5.18327L17.9551 1.93765C17.9582 1.88836 17.9711 1.84019 17.993 1.79595C18.015 1.75171 18.0455 1.71229 18.0829 1.68002C18.1203 1.64775 18.1637 1.62326 18.2107 1.608C18.2576 1.59274 18.3072 1.58701 18.3564 1.59115C18.4555 1.59844 18.5477 1.6448 18.6127 1.72005C18.6777 1.79529 18.7101 1.89325 18.7029 1.9924L18.4385 5.58002C18.4317 5.67344 18.3902 5.76093 18.3221 5.82526C18.254 5.88959 18.1643 5.92612 18.0706 5.92765L14.4826 5.98502H14.4766Z" fill="#207092"/>
</svg>
