<svg width="101" height="100" viewBox="0 0 101 100" fill="none" xmlns="http://www.w3.org/2000/svg">
<g clip-path="url(#clip0_0_11201)">
<path d="M9.03906 27.0625H74.6084L83.1865 28.2881L83.1904 28.2891L91.7891 29.457V29.458C92.3762 29.5559 92.9113 29.848 93.3018 30.2812C93.6556 30.74 93.8906 31.2753 93.8906 31.8945V88.0859C93.8906 90.3498 92.9515 92.4508 91.459 93.9434C89.9664 95.4359 87.8654 96.375 85.6016 96.375H9.03906C6.77522 96.375 4.67421 95.4359 3.18164 93.9434C1.68907 92.4508 0.75 90.3498 0.75 88.0859V35.3516C0.75 33.0877 1.68907 30.9867 3.18164 29.4941C4.67421 28.0016 6.77522 27.0625 9.03906 27.0625Z" fill="white" stroke="url(#paint0_linear_0_11201)"/>
<path d="M74.6084 27.0625L83.1865 28.2881L83.1904 28.2891L91.7891 29.457V29.458C92.3762 29.5561 92.9114 29.8482 93.3018 30.2812C93.6556 30.74 93.8906 31.2753 93.8906 31.8945V88.0859C93.8906 90.3498 92.9516 92.4508 91.459 93.9434C89.9664 95.4359 87.8654 96.375 85.6016 96.375H48.0156V27.0625H74.6084Z" fill="#C8C6CD" stroke="url(#paint1_linear_0_11201)"/>
<path d="M32.4766 58.7891C32.4766 63.6525 28.551 67.5781 23.6875 67.5781C18.824 67.5781 14.8984 63.6525 14.8984 58.7891C14.8984 53.9256 18.824 50 23.6875 50C28.551 50 32.4766 53.9256 32.4766 58.7891ZM35.4062 79.2969V82.2266C35.4062 83.8674 34.1174 85.1562 32.4766 85.1562H14.8984C13.2576 85.1562 11.9688 83.8674 11.9688 82.2266V79.9414C11.9688 74.1406 15.9531 68.6916 21.6951 67.7541C22.3986 67.6367 23.043 67.5781 23.6875 67.5781C30.1326 67.5781 35.4062 72.8518 35.4062 79.2969Z" fill="url(#paint2_linear_0_11201)"/>
<path d="M68.0234 61.7188C69.6415 61.7188 70.9531 60.4071 70.9531 58.7891C70.9531 57.171 69.6415 55.8594 68.0234 55.8594C66.4054 55.8594 65.0938 57.171 65.0938 58.7891C65.0938 60.4071 66.4054 61.7188 68.0234 61.7188Z" fill="#696767"/>
<path d="M79.7422 61.7188C81.3602 61.7188 82.6719 60.4071 82.6719 58.7891C82.6719 57.171 81.3602 55.8594 79.7422 55.8594C78.1242 55.8594 76.8125 57.171 76.8125 58.7891C76.8125 60.4071 78.1242 61.7188 79.7422 61.7188Z" fill="#696767"/>
<path d="M56.3047 61.7188C57.9227 61.7188 59.2344 60.4071 59.2344 58.7891C59.2344 57.171 57.9227 55.8594 56.3047 55.8594C54.6867 55.8594 53.375 57.171 53.375 58.7891C53.375 60.4071 54.6867 61.7188 56.3047 61.7188Z" fill="#696767"/>
<path d="M79.7422 73.4375H56.3047C54.6854 73.4375 53.375 72.1271 53.375 70.5078C53.375 68.8885 54.6854 67.5781 56.3047 67.5781H79.7422C81.3615 67.5781 82.6719 68.8885 82.6719 70.5078C82.6719 72.1271 81.3615 73.4375 79.7422 73.4375ZM82.6719 82.2266C82.6719 83.8459 81.3615 85.1562 79.7422 85.1562H56.3047C54.6854 85.1562 53.375 83.8459 53.375 82.2266C53.375 80.6072 54.6854 79.2969 56.3047 79.2969H79.7422C81.3615 79.2969 82.6719 80.6072 82.6719 82.2266Z" fill="#696767"/>
<path d="M76.8125 3.125C63.8631 3.125 53.375 13.6131 53.375 26.5625C53.375 39.5119 63.8631 50 76.8125 50C89.7619 50 100.25 39.5119 100.25 26.5625C100.25 13.6131 89.7619 3.125 76.8125 3.125Z" fill="url(#paint3_linear_0_11201)"/>
<path d="M100.25 26.5625C100.25 39.5119 89.7619 50 76.8125 50V3.125C89.7619 3.125 100.25 13.6131 100.25 26.5625Z" fill="url(#paint4_linear_0_11201)"/>
<path d="M32.4766 58.7891C32.4766 63.6525 28.551 67.5781 23.6875 67.5781V50C28.551 50 32.4766 53.9256 32.4766 58.7891ZM35.4062 79.2969V82.2266C35.4062 83.8674 34.1174 85.1562 32.4766 85.1562H23.6875V67.5781C30.1326 67.5781 35.4062 72.8518 35.4062 79.2969Z" fill="url(#paint5_linear_0_11201)"/>
<path d="M87.6522 22.7537L76.8125 33.5938L75.9334 34.4725C75.4063 35.0586 74.6446 35.3516 73.8829 35.3516C73.1211 35.3516 72.3594 35.0586 71.8323 34.4725L65.9729 28.6131C64.801 27.4998 64.801 25.6252 65.9729 24.5117C67.0862 23.3398 68.9608 23.3398 70.0743 24.5117L73.8829 28.2615L76.8125 25.3318L83.551 18.6523C84.6643 17.4805 86.5389 17.4805 87.6524 18.6523C88.8243 19.7658 88.8243 21.6404 87.6522 22.7537Z" fill="white"/>
<path d="M87.6521 22.7537L76.8125 33.5938V25.3318L83.551 18.6523C84.6643 17.4805 86.5389 17.4805 87.6523 18.6523C88.8242 19.7658 88.8242 21.6404 87.6521 22.7537Z" fill="white"/>
</g>
<defs>
<linearGradient id="paint0_linear_0_11201" x1="0.25" y1="61.7188" x2="94.3906" y2="61.7188" gradientUnits="userSpaceOnUse">
<stop stop-color="#0068B4"/>
<stop offset="0.548077" stop-color="#0094FF"/>
<stop offset="1" stop-color="#007FDB"/>
</linearGradient>
<linearGradient id="paint1_linear_0_11201" x1="47.5156" y1="60.0819" x2="94.3982" y2="60.3409" gradientUnits="userSpaceOnUse">
<stop stop-color="#0061FF"/>
<stop offset="1" stop-color="#60EFFF"/>
</linearGradient>
<linearGradient id="paint2_linear_0_11201" x1="11.9688" y1="67.5781" x2="35.4062" y2="67.5781" gradientUnits="userSpaceOnUse">
<stop stop-color="#0068B4"/>
<stop offset="0.548077" stop-color="#0094FF"/>
<stop offset="1" stop-color="#007FDB"/>
</linearGradient>
<linearGradient id="paint3_linear_0_11201" x1="53.375" y1="25.4713" x2="100.256" y2="25.8598" gradientUnits="userSpaceOnUse">
<stop stop-color="#0061FF"/>
<stop offset="1" stop-color="#60EFFF"/>
</linearGradient>
<linearGradient id="paint4_linear_0_11201" x1="76.8125" y1="26.5625" x2="100.25" y2="26.5625" gradientUnits="userSpaceOnUse">
<stop stop-color="#0068B4"/>
<stop offset="0.548077" stop-color="#0094FF"/>
<stop offset="1" stop-color="#007FDB"/>
</linearGradient>
<linearGradient id="paint5_linear_0_11201" x1="23.6875" y1="67.5781" x2="35.4062" y2="67.5781" gradientUnits="userSpaceOnUse">
<stop stop-color="#0068B4"/>
<stop offset="0.548077" stop-color="#0094FF"/>
<stop offset="1" stop-color="#007FDB"/>
</linearGradient>
<clipPath id="clip0_0_11201">
<rect width="100" height="100" fill="white" transform="translate(0.25)"/>
</clipPath>
</defs>
</svg>
